<svg xmlns="http://www.w3.org/2000/svg" enable-background="new 0 0 2000 2000" viewBox="0 0 2000 2000"><path fill="#ede4f1" fill-rule="evenodd" d="M1090.87,346.8c211.02,0,145.98,270.7,298.31,367.38c201.64,127.98,341.62,111.82,320.45,330.76
		c-17.54,181.46-180.9,525.28-671.23,525.28c-490.31,0-908.68-213.86-762.69-598.42C421.7,587.25,600.56,346.8,1090.87,346.8z" clip-rule="evenodd"/><path fill="#d1c6e2" fill-rule="evenodd" d="M1030.89,1430.38c177.15,0,320.77,18.88,320.77,42.17c0,23.3-143.62,42.17-320.77,42.17
		c-177.16,0-320.78-18.88-320.78-42.17C710.11,1449.26,853.73,1430.38,1030.89,1430.38z" clip-rule="evenodd"/><path fill="#9488c0" fill-rule="evenodd" d="M1025.95,424.71l258.26-52.65c-0.39,2.72-0.32,5.54,0.26,8.38c0.88,4.34,2.86,8.18,5.59,11.29l-256.25,71.57
		L1025.95,424.71z" clip-rule="evenodd"/><path fill="#9488c0" fill-rule="evenodd" d="M1025.95,424.71l-258.27,52.66c1.43,2.35,2.48,4.97,3.06,7.81c0.88,4.34,0.57,8.64-0.73,12.58l263.8-34.46
		L1025.95,424.71z" clip-rule="evenodd"/><path fill="#d7cce5" fill-rule="evenodd" d="M1303.67,351.42c13.31-2.71,26.32,5.88,29.03,19.2c2.72,13.31-5.87,26.32-19.2,29.03
		c-13.31,2.72-26.32-5.88-29.03-19.2C1281.74,367.13,1290.34,354.13,1303.67,351.42z" clip-rule="evenodd"/><path fill="#d7cce5" fill-rule="evenodd" d="M741.69,465.99c-13.31,2.71-21.91,15.72-19.2,29.03c2.72,13.33,15.72,21.92,29.04,19.2
		c13.31-2.71,21.91-15.72,19.2-29.03C768.01,471.86,755.02,463.27,741.69,465.99z" clip-rule="evenodd"/><polygon fill="#9488c0" fill-rule="evenodd" points="1010.33 385.96 1049.43 385.96 1065.55 955.63 996.22 955.63" clip-rule="evenodd"/><path fill="#d7cce5" fill-rule="evenodd" d="M1030.88,311.06c21.18,0,38.36,13.9,38.36,31.06c0,11.75-8.05,21.98-19.94,27.25h-36.82
		c-11.89-5.27-19.95-15.5-19.95-27.25C992.52,324.96,1009.7,311.06,1030.88,311.06z" clip-rule="evenodd"/><path fill="#38308d" fill-rule="evenodd" d="M1006.37,385.96h49.02v-16.59c-16.28,0-32.74,0-49.02,0V385.96z" clip-rule="evenodd"/><path fill="#2b2870" fill-rule="evenodd" d="M1175.89,596.59l132.75-196.44l142.33,210.63H1166.3L1175.89,596.59L1175.89,596.59z M1308.64,432.85
		l-107.91,159.67h215.81L1308.64,432.85z" clip-rule="evenodd"/><path fill="#2b2870" fill-rule="evenodd" d="M614.19,711.15l132.75-196.43l142.34,210.63H604.6L614.19,711.15L614.19,711.15z M746.94,547.41L639.03,707.08
		h215.81L746.94,547.41z" clip-rule="evenodd"/><path fill="#8071b3" fill-rule="evenodd" d="M1464.57,623.56c-30.69,51.97-89.02,87.06-155.93,87.06c-66.92,0-125.24-35.09-155.94-87.06H1464.57z" clip-rule="evenodd"/><path fill="#8071b3" fill-rule="evenodd" d="M902.87,738.13c-30.69,51.96-89.01,87.06-155.93,87.06s-125.24-35.1-155.93-87.06H902.87z" clip-rule="evenodd"/><path fill="#b6a9d2" fill-rule="evenodd" d="M1153.94,623.56l309.41,0.01c3.52,0,6.38-2.88,6.38-6.4h0.01c-0.01-3.52-2.87-6.39-6.39-6.39h-309.41
		c-3.53,0-6.39,2.87-6.39,6.39l0,0C1147.55,620.69,1150.41,623.56,1153.94,623.56z" clip-rule="evenodd"/><path fill="#b6a9d2" fill-rule="evenodd" d="M592.24,738.13h309.41c3.52,0,6.39-2.87,6.39-6.39l0,0c0-3.52-2.87-6.39-6.39-6.39H592.24
		c-3.52,0-6.39,2.87-6.39,6.39l0,0C585.85,735.26,588.72,738.13,592.24,738.13z" clip-rule="evenodd"/><path fill="#2b2870" fill-rule="evenodd" d="M913.34,955.63h235.08c7.39,0,13.42,6.04,13.42,13.42l0,0c0,7.39-6.04,13.42-13.42,13.42H913.34
		c-7.39,0-13.42-6.04-13.42-13.42l0,0C899.92,961.67,905.96,955.63,913.34,955.63z" clip-rule="evenodd"/><path fill="#38308d" fill-rule="evenodd" d="M853.17,982.48h355.43c7.39,0,13.42,6.05,13.42,13.42v0.01c0,7.38-6.04,13.42-13.42,13.42H853.17
		c-7.39,0-13.42-6.05-13.42-13.42v-0.01C839.75,988.52,845.78,982.48,853.17,982.48z" clip-rule="evenodd"/><rect width="347.17" height="450.09" x="857.3" y="1009.33" fill="#9488c0" fill-rule="evenodd" clip-rule="evenodd"/><path fill="#2b2870" fill-rule="evenodd" d="M924.03,1040.4h213.71c0,24.27,19.68,43.94,43.95,43.94v307.03c-24.27,0-43.95,19.68-43.95,43.95
		c0,0.44,0.01,0.88,0.02,1.32H924.01c0.01-0.44,0.02-0.88,0.02-1.32c0-24.27-19.68-43.95-43.95-43.95v-307.03
		C904.35,1084.34,924.03,1064.67,924.03,1040.4z" clip-rule="evenodd"/><path fill="#9488c0" fill-rule="evenodd" d="M942.81,1059.62c-6.73,18.52-21.43,33.23-39.95,39.95v273.01c18.96,6.88,33.92,22.13,40.42,41.27h175.21
		c6.51-19.15,21.46-34.39,40.43-41.27v-273.01c-18.52-6.72-33.23-21.43-39.95-39.95H942.81z" clip-rule="evenodd"/><ellipse cx="1489.51" cy="1519.23" fill="#d1c6e2" fill-rule="evenodd" clip-rule="evenodd" rx="256.35" ry="46.91"/><path fill="#d1c6e2" fill-rule="evenodd" d="M800.39,1563.06c328.18,0,594.21,31.44,594.21,70.24c0,38.79-266.03,70.23-594.21,70.23
		c-328.17,0-594.2-31.44-594.2-70.23C206.19,1594.51,472.23,1563.06,800.39,1563.06z" clip-rule="evenodd"/><path fill="#d1c6e2" fill-rule="evenodd" d="M1672.84,1332.61c-73.83,0-133.68,10.22-133.68,22.82c0,12.62,59.85,22.83,133.68,22.83
		c73.83,0,133.68-10.22,133.68-22.83C1806.52,1342.83,1746.67,1332.61,1672.84,1332.61z" clip-rule="evenodd"/><path fill="#1b2452" fill-rule="evenodd" d="M1645.01,1115.4c0.36-1.6-0.63-3.18-2.23-3.55c-1.6-0.36-3.19,0.63-3.56,2.23
		c-4.91,21.24-5.22,43.07,0.19,65.73c5.39,22.58,16.44,45.91,34.25,70.24c0.98,1.33,2.83,1.61,4.15,0.64
		c1.32-0.96,1.61-2.82,0.64-4.15c-17.35-23.68-28.08-46.3-33.29-68.1C1639.98,1156.73,1640.28,1135.8,1645.01,1115.4z" clip-rule="evenodd"/><path fill="#c2b5d9" fill-rule="evenodd" d="M1641.46,1118.81c26.81-61,25.24-118.66-4.72-173.01C1705.07,1002.34,1706.63,1060.02,1641.46,1118.81z" clip-rule="evenodd"/><path fill="#9488c0" fill-rule="evenodd" d="M1636.75,945.79c29.95,54.35,31.53,112.02,4.72,173.01C1579.81,1071.45,1656.87,1020.07,1636.75,945.79z" clip-rule="evenodd"/><path fill="#1b2452" fill-rule="evenodd" d="M1677.58,1194.46c0.16-1.62-1.04-3.07-2.67-3.23c-1.63-0.15-3.07,1.05-3.23,2.68
		c-0.68,7.17-0.84,17.59-0.26,29.4c0.5,10.23,1.55,21.56,3.3,32.78c0.25,1.62,1.76,2.72,3.38,2.48c1.62-0.25,2.72-1.77,2.48-3.38
		c-1.7-10.98-2.74-22.09-3.24-32.16C1676.79,1211.48,1676.92,1201.36,1677.58,1194.46z" clip-rule="evenodd"/><path fill="#9488c0" fill-rule="evenodd" d="M1673.98,1200.07c-28.39-51.6-7.94-100.36,61.34-146.27C1698.7,1106.94,1678.25,1155.69,1673.98,1200.07z" clip-rule="evenodd"/><path fill="#5a53a2" fill-rule="evenodd" d="M1673.98,1200.07c4.28-44.37,24.72-93.13,61.34-146.27C1713.58,1126.19,1760.77,1152.93,1673.98,1200.07z" clip-rule="evenodd"/><path fill="#1b2452" fill-rule="evenodd" d="M1675.5,1253.31c-0.05,1.64,1.23,3,2.86,3.06c1.64,0.05,3-1.23,3.06-2.86c0.25-7.62,1.98-15.24,4.26-22.1
		c3.62-10.9,8.59-19.85,11-23.74c0.87-1.39,0.44-3.23-0.95-4.08c-1.38-0.87-3.22-0.44-4.08,0.95c-2.53,4.07-7.75,13.48-11.58,25.01
		C1677.63,1236.88,1675.76,1245.07,1675.5,1253.31z" clip-rule="evenodd"/><path fill="#9488c0" fill-rule="evenodd" d="M1756.97,1213.42c-17.88,41.24-56.22-8.94-69.93-0.61c4.1-9.32,9.84-15.97,16.31-19.35
		C1722.25,1183.58,1737.92,1218.01,1756.97,1213.42z" clip-rule="evenodd"/><path fill="#3f4979" fill-rule="evenodd" d="M1586.86,1241.37v53.73c0,33.89,27.72,61.61,61.61,61.61h48.73c33.89,0,61.61-27.72,61.61-61.61v-53.73
		H1586.86z" clip-rule="evenodd"/><path fill="#1b2452" fill-rule="evenodd" d="M1604.28,1337.93c84.11,27.04,124.53-10.14,116.48-96.56h38.06v53.73c0,33.89-27.72,61.61-61.61,61.61h-48.73
		C1631.18,1356.71,1615.51,1349.49,1604.28,1337.93z" clip-rule="evenodd"/><path fill="#fab688" fill-rule="evenodd" d="M413.13,882.6c1.91-6.83,3.67-13.99,5.05-18.17c60.83-3.52,56.31-18.91,54.73-25.87
		c-9.17-33.32-14.62-54.32-5.04-63.21c4.28,2.52,13.25,8.28,15.64,22.77c3.99-1.93,9.09-4.52,10.11-8.77
		c2.59-12.75,4.61-39.61,19.56-40.51c1.83,12.05,3.27,24.81,4.32,38.26c7.81,7.51,6.2,34.73-1.82,65.96
		c3.29,17.92-7.94,27.43-33.68,28.52l0.44,5.52C459.42,882.03,432.8,880.74,413.13,882.6z" clip-rule="evenodd"/><path fill="#071023" fill-rule="evenodd" d="M472.9,838.55c1.59,6.97,6.1,22.36-54.73,25.88c-26.47-6.54-48.2-30.8-51.11-41.16
		c-29.71-61.8,5.45-86.88,24.16-95.9c9.47-60.37,96.24-4.96,140.92-33.2c16.98,24.56-5.32,54.43-18.96,54.67
		c-14.96,0.89-16.97,27.77-19.56,40.51c-1.02,4.24-6.12,6.84-10.12,8.77c-2.38-14.49-11.35-20.25-15.63-22.77
		C458.28,784.24,463.74,805.24,472.9,838.55z" clip-rule="evenodd"/><path fill="#2b2870" fill-rule="evenodd" d="M980.2,1119.48H674.34c-15.74,0-23.95-10.15-23.95-27.25h344.34h0.94c3.32,0.01,7.91,1.87,4.74,12.04
		C997.66,1112.64,988.57,1119.48,980.2,1119.48z" clip-rule="evenodd"/><path fill="#69312c" fill-rule="evenodd" d="M381.23,1119.48h892.04c23.37,0-0.51,46.73-11.84,46.73h-47.21l27.37,461.74c2.22,37.53-21.72,31.25-24.75,0
		l-44.77-461.74H482.44l-43.55,461.74c-2.93,31.02-26.89,37.74-24.75,0l26.15-461.74h-47.22
		C383.14,1166.21,356.84,1119.48,381.23,1119.48z" clip-rule="evenodd"/><path fill="#6251a1" fill-rule="evenodd" d="M1062.32,912.31H866.74c-5.82,0-12.59,4.75-15.04,10.57l-67.17,158.78c-2.46,5.82,0.29,10.57,6.1,10.57
		h195.59c5.81,0,12.58-4.75,15.04-10.57l67.16-158.78C1070.88,917.06,1068.13,912.31,1062.32,912.31z" clip-rule="evenodd"/><path fill="#d7cce5" fill-rule="evenodd" d="M1049.22,928H867.39c-0.46,0.24-1.08,0.75-1.24,1l-62.4,147.54h181.83c0.46-0.24,1.08-0.74,1.24-0.99
		L1049.22,928z" clip-rule="evenodd"/><path fill="#9488c0" fill-rule="evenodd" d="M533.48,919.56c-60.84-12.25-111.13-14.58-150.87-6.99c-29.44,2.72-45.87,18.42-49.3,47.1
		c-19.93,114.46-11.08,232.77,31.41,370.96c3.82,10.71,38.14,18.99,89.28,12.44c114.67-9.77,154.97-28.23,154.73-94.01
		c-3.6-46.25-25.44-115.49-65.5-207.72C513.45,1015.69,484.93,939.4,533.48,919.56z" clip-rule="evenodd"/><path fill="#6251a1" fill-rule="evenodd" d="M382.62,912.57c34.44-6.22,76.66-5.12,126.66,3.28c-5.71-9.47-10.73-18.03-15.04-25.72
		c-40.78-12.21-101.37-10.38-108.92,1.3C383.57,901.13,382.91,907.5,382.62,912.57z" clip-rule="evenodd"/><path fill="#1b2452" fill-rule="evenodd" d="M806.88,1297.07c-50.94-9.49-117.97-16.4-201.08-20.73c-11.07,44.02-54.86,58.48-151.8,66.73
		c-26.8,3.43-48.98,2.8-64.58-0.14c36.14,66.43,158.46,77.64,366.95,33.62c16.91,62.25,28.59,67.71,74.16,232.57
		c22.16,8.69,54.38-9.86,49.53-29.12c-21.68-73.84-11.49-142.04-27.51-219.85C845.67,1326.63,834.69,1302.7,806.88,1297.07z" clip-rule="evenodd"/><path fill="#071023" fill-rule="evenodd" d="M572.52,1402.35c-3.31,66.47,13.93,92.46,15.39,201.57c15.73,8.96,42.59,11.13,53.29-7.76
		c2.57-87.71,5.41-153.29,8.5-200.88C621.84,1399.01,596.11,1401.36,572.52,1402.35z" clip-rule="evenodd"/><path fill="#9488c0" fill-rule="evenodd" d="M683.35,1068.2c-75.84-92.99-125.79-142.54-149.87-148.64c-48.55,19.84-20.04,96.13,9.74,121.79
		c27.54,31.91,67.56,60.73,120.07,86.45c24.74,10.09,86.32,8.62,184.71-4.41c6.62-15.08,4.73-26.62-5.7-34.59
		C754.97,1077.57,701.98,1070.69,683.35,1068.2z" clip-rule="evenodd"/><path fill="#6251a1" fill-rule="evenodd" d="M724.02,1059.84c-12.97,2.26-27.69,3.62-44.18,4.07c1.16,1.41,2.33,2.84,3.51,4.28
		c8.8,1.18,25.29,3.34,49.44,6.48C731.15,1067.17,728.23,1062.22,724.02,1059.84z" clip-rule="evenodd"/><path fill="#6251a1" fill-rule="evenodd" d="M577.5,1126.7c28.46-2.74,49.45-6.3,62.97-10.7c-41.42-22.65-73.84-47.53-97.24-74.65
		C556.72,1072.41,568.14,1100.86,577.5,1126.7z" clip-rule="evenodd"/><path fill="#fab688" fill-rule="evenodd" d="M849.25,1120.32c6.29,1.85,12.33,2.54,18.08,2.07c18.04-6.39,24.18-21.24,33.85-24.66
		c6.9,0.46,13.96,1.5,21.15,3.13c12.72-1.47,3.46-8.28-27.78-20.42c-18.77,0.4-35.36,3.9-49.73,10.53
		C852.38,1098.22,853.86,1108,849.25,1120.32L849.25,1120.32z M757.22,1057.07c-8.93,0.85-18.89,2.67-29.89,5.47
		c2.47,2.74,4.29,6.79,5.46,12.14c8.88,1.15,18.8,2.43,29.76,3.85c2.31-2.57,4.35-4.58,6.12-6.05c18.22,4,26.77,5.49,25.9,2.63
		C787.05,1068.79,774.59,1062.78,757.22,1057.07z" clip-rule="evenodd"/><path fill="#070a16" fill-rule="evenodd" d="M861.67,1651.57c65.58,3.14,98.33,1.17,98.24-5.89c-0.26-17.47-38.7-11.27-69.36-40.66
		c-0.72,18.74-22.96,24.38-38.64,18.21c-7.41-5.61-13.36-6.84-17.85-3.68c-3.49,5.9-4.65,13.74-3.49,23.54
		C834.22,1649.23,844.58,1652.05,861.67,1651.57L861.67,1651.57z M612.09,1645.48c65.59,3.14,73.96-8.19,73.87-15.24
		c-1-12.23-20.43-3.46-47.47-25.94c-0.72,18.74-13.95,22.72-29.62,16.55c-7.41-5.61-12.25-9.59-23.36-0.73
		c-3.49,5.9-4.66,10.97-3.51,20.77C585.66,1647,595.02,1645.96,612.09,1645.48z" clip-rule="evenodd"/><path fill="#fab688" fill-rule="evenodd" d="M835.87,1610.66c0.42,2.58,0.71,5.11,0.88,7.58c4.08-1.23,9.14,0.44,15.17,5
		c14.25,5.6,33.91,1.46,37.93-13.41c-4.66-4.23-8.38-10.26-11.17-18.07C872.54,1604.44,852.58,1613.95,835.87,1610.66
		L835.87,1610.66z M592.84,1606.35c-0.28,3.28-0.8,6.63-1.59,10.01c7.31-3.53,11.63-0.05,17.62,4.48
		c14.33,5.64,26.63,2.8,29.17-12.07c-1.13-1.75-2.05-3.55-2.77-5.39C624.05,1612.98,606.08,1611.96,592.84,1606.35z" clip-rule="evenodd"/><path fill="#69312c" fill-rule="evenodd" d="M330.41,1366.23h18.82l-16.59-140.55h-30.35c-24.39,0-46.7-19.96-49.58-44.35l-12.98-110
		c-2.87-24.39,14.73-44.35,39.12-44.35h99.7c24.39,0,46.71,19.96,49.58,44.35l12.98,110c2.87,24.39-14.72,44.35-39.12,44.35h-30.34
		l16.58,140.55h288.78c12.95,0,23.55,10.6,23.55,23.55l0,0c0,12.95-10.6,23.55-23.55,23.55H510.42v66.69h9.56v102.28l101.37,6.96
		c4.34,0.3,7.91,3.58,7.91,7.91v7.91H368.75v-9.2c0-3.64,2.99-6.38,6.62-6.62l102.66-6.96v-102.28h9.57v-66.69h-157.2
		c-12.96,0-23.55-10.6-23.55-23.55l0,0C306.86,1376.83,317.45,1366.23,330.41,1366.23L330.41,1366.23z M628.16,1649.83
		c9.35,0,16.93-7.58,16.93-16.93c0-9.35-7.58-16.93-16.93-16.93c-9.35,0-16.92,7.58-16.92,16.93
		C611.25,1642.25,618.81,1649.83,628.16,1649.83L628.16,1649.83z M453.57,1615.98c9.34,0,16.92,7.58,16.92,16.93
		c0,9.35-7.58,16.93-16.92,16.93c-9.36,0-16.93-7.58-16.93-16.93C436.65,1623.56,444.21,1615.98,453.57,1615.98L453.57,1615.98z
		 M549.25,1615.98c9.35,0,16.92,7.58,16.92,16.93c0,9.35-7.57,16.93-16.92,16.93c-9.36,0-16.93-7.58-16.93-16.93
		C532.32,1623.56,539.89,1615.98,549.25,1615.98L549.25,1615.98z M374.65,1615.98c9.35,0,16.92,7.58,16.92,16.93
		c0,9.35-7.57,16.93-16.92,16.93c-9.35,0-16.93-7.58-16.93-16.93C357.72,1623.56,365.3,1615.98,374.65,1615.98z" clip-rule="evenodd"/><path fill="#6251a1" fill-rule="evenodd" d="M428.12,1071.33l12.98,110c2.87,24.39-14.72,44.35-39.12,44.35h-30.35l13.74,116.42
		c1.3,0.3,2.64,0.58,4.04,0.84c1.79,0.34,3.67,0.64,5.62,0.92l-12.79-108.45h22.52c28.64,0,49.37-23.77,46.02-52.12l-12.98-110
		c-3.28-27.78-28.68-47.69-56.71-47.69h-56.01c-0.11,1.39,0-0.01-0.11,1.38h53.56C402.93,1026.98,425.24,1046.93,428.12,1071.33z" clip-rule="evenodd"/><path fill="#071023" fill-rule="evenodd" d="M709.54,1385.77c-3.11-13.54-15.29-23.71-29.74-23.71H403.68c1.42,1.43,2.88,2.82,4.42,4.17h268.92
		c12.15,0,22.22,9.33,23.43,21.17C703.45,1386.87,706.48,1386.33,709.54,1385.77z" clip-rule="evenodd"/><path fill="#071023" fill-rule="evenodd" d="M1625.2,518.28c17.51-25.63-20.35-32.21-19.98-60.27c0.26-19.33-11.85-39.47-8.21-58.76
		c7.42-39.46-7.99-51.42-8.07-54.43c-0.92-29.9-18.8-30.66-36.61-40.75c-31.6-17.89-59.07,4-68.03,4.58
		c-45.66,2.99-20.37,22.62-40.82,40.31c-16.83,14.57-8.87,25.61-7.14,34.37c0.78,3.95,4.45,20.19-7.2,28.41
		c-17.09,12.04,0.42,44.2-9.67,47.26c-38.8,11.76-23.18,16.59-22.13,43.72c0.33,8.67,8.69,15.25,14.16,21.62
		C1478.3,503.41,1524.28,586.56,1625.2,518.28z" clip-rule="evenodd"/><path fill="#ede4f1" fill-rule="evenodd" d="M1565.74,482.27c-1.96-4.6-7.25-7.46-9.03-8.9c-19.35,10.45-39.85,16.92-61.34,17.08
		c0.77,12.29,2.59,25.21,5.05,39.02C1535.96,501.83,1557.74,486.1,1565.74,482.27z" clip-rule="evenodd"/><path fill="#ede4f1" fill-rule="evenodd" d="M1480.11,480.7c-5.24,11.04-8.78,21.36-10.63,30.95c5.63-10.15,11.94-16.35,25.9-21.2
		c-4.45-4.68-4.1-10.78-5.9-15.68C1484.46,477.85,1481.33,479.84,1480.11,480.7z" clip-rule="evenodd"/><path fill="#38308d" fill-rule="evenodd" d="M1464.9,480.81c-53.7,136.47-8.43,125.88,107.88,2.95c6.82,1.62,13.06,3.61,18.72,5.99
		c-15.1,13.97-20.74,37.32-16.93,70.05c2.27,25.34,4.79,49.98,7.53,73.92c-6.62,14.94-10.01,30.22-10.59,46.71
		c-0.5,14.4,1.14,29.72,4.64,46.53c5.49,26.36,15.54,56.38,29.07,92.27c-81.43,27.74-151.12,28.05-209.1,0.94
		c33.63-73.91,29.15-96.83,25.32-146.28c-3.79-80.26-52.71-55.05,28.61-190.04C1455.62,482.11,1460.48,481.23,1464.9,480.81z" clip-rule="evenodd"/><path fill="#9488c0" fill-rule="evenodd" d="M1495.38,490.45c0.77,12.29,2.59,25.21,5.05,39.02c35.54-27.64,57.31-43.37,65.32-47.2
		c2.41,0.46,4.75,0.95,7.03,1.49c-116.3,122.93-161.58,133.52-107.88-2.95c5.59-0.54,10.47-0.31,15.21-0.11
		c-5.24,11.04-8.78,21.36-10.63,30.95C1475.11,501.5,1481.42,495.31,1495.38,490.45z" clip-rule="evenodd"/><path fill="#9488c0" fill-rule="evenodd" d="M1525.8,681.69c22.1,0.06,42.74-0.77,61.89-2.5c-5-37.87-9.37-77.68-13.12-119.39
		c-3.82-32.73,1.82-56.08,16.93-70.05c20.12,8.45,32.91,21.69,38.37,39.72c11.89,38.35,10.43,181.19-2.5,194.1
		c-16.32,7.15-50.8,5.69-103.45-4.37C1527.56,708.47,1528.18,695.97,1525.8,681.69z" clip-rule="evenodd"/><path fill="#fab688" fill-rule="evenodd" d="M1512.47,687.03c2.99,0.33,7.72,0.63,14.19,0.9c1.03,9.42,0.63,18.02-1.18,25.78
		c-5.64-1.04-12.79-2.54-21.46-4.49c-15.4,3.96-33.95,3.75-55.64-0.62c-15.07-5.8-19.66-16.42-13.75-31.88
		c23.58,2.75,37.7,1.87,42.36-2.66c-8.24-4.2-11.16-9.04-8.75-14.54C1491.41,668.02,1506.16,677.19,1512.47,687.03z" clip-rule="evenodd"/><path fill="#d0d2d3" fill-rule="evenodd" d="M1432.45,644.37l-165.03-25.01l35.62,71.27l165.35,25.94l-2.64-5.3c-5.54-0.57-11.33-1.46-17.38-2.68
		c-15.07-5.8-19.66-16.42-13.75-31.88c5.35,0.62,10.21,1.06,14.58,1.31L1432.45,644.37z" clip-rule="evenodd"/><path fill="#a6a8ab" fill-rule="evenodd" d="M1434.66,663.01l7.25,14.46l0,0c-2.32-0.21-4.74-0.47-7.28-0.76c-5.12,13.42-2.35,23.2,8.34,29.33
		l-135.68-21.22l-13.86-27.72c18.99,6.58,38.3,10.74,57.93,12.49c4.01,4.64,10.26,8.05,15.33,8.05c4.72,0,7.04-2.95,6.25-7.11
		C1393.17,670.54,1413.75,668.03,1434.66,663.01z" clip-rule="evenodd"/><path fill="#a6a8ab" fill-rule="evenodd" d="M1486.7,711.84l-18.31,4.73l-2.64-5.3C1473.18,712.04,1480.15,712.23,1486.7,711.84z" clip-rule="evenodd"/><path fill="#a6a8ab" fill-rule="evenodd" d="M1468.39,716.57l18.31-4.73c6.15-0.36,11.92-1.24,17.31-2.63c5.81,1.31,10.95,2.41,15.38,3.31l-45.69,14.98
		l-45.09-7.67l-125.88-21.4l0.3-7.82l120.87,18.96l0,0L1468.39,716.57z" clip-rule="evenodd"/><path fill="#9488c0" fill-rule="evenodd" d="M1392.19,638.26c6.4-6.01,11.81-13.07,16.24-21.15c2.6,7.28,5.76,15,8.34,24.88L1392.19,638.26z" clip-rule="evenodd"/><path fill="#9488c0" fill-rule="evenodd" d="M1450.05,483.85c-19.09,31.68-31,54.54-38,72.01C1405.15,501.67,1415.03,489.47,1450.05,483.85z" clip-rule="evenodd"/><path fill="#071023" fill-rule="evenodd" d="M1592.35,823.41c19.23,39.65,24.64,125.86,16.23,258.59c-105.57,14.29-181.62,12.82-228.18-4.37
		c3.78-121.21,12.34-205.59,25.64-253.14C1458.85,845.88,1520.96,845.51,1592.35,823.41z" clip-rule="evenodd"/><path fill="#fab688" fill-rule="evenodd" d="M1556.72,473.37c-19.35,10.45-39.85,16.92-61.34,17.08c-3.92-4.13-4.12-9.34-5.33-13.87
		c-0.06-0.25-0.14-0.5-0.21-0.75c3.29-4.49,5.52-7.87,3.53-15.71c-0.03-0.13-0.06-0.25-0.1-0.36
		c-23.28-7.81-37.74-46.97-28.28-69.99c-0.47-7.71-1.21-15.69-2.22-23.96c34.49,10,56.15,9.46,81.41-8.31
		c4.43,11.49,6.63,18.04,4,30.18c-0.58,4.19-2.72,13.14,2.88,13.97c2.59-14.57,7.89-22.61,17.72-19.14
		c8.76,14.02,3.54,31.69-17.5,35.33c-6.2,12.76-8.85,21.49-8,26.19c-0.66,7.95,6.3,18.66,11.54,26.49
		C1555.49,471.53,1556.13,472.47,1556.72,473.37z" clip-rule="evenodd"/><path fill="#ed7d57" fill-rule="evenodd" d="M1493.15,459.3c14.1,1.59,20.5,1.49,33.53-3.7c-7.63,8.24-19.53,13.15-33.2,13.96
		C1494.21,466.11,1494.08,462.79,1493.15,459.3z" clip-rule="evenodd"/><path fill="#fab688" fill-rule="evenodd" d="M1396.3,1200.25c-2.72-37.39-4.33-77.07-4.83-118.99c23.22,6.75,52.55,10.24,87.99,10.46
		c-8.51,35.91-21.42,75.2-28.14,113.98c35.74,96.93-13.46,177.03-6.5,240.43c-9.73,15.53-25.91,50.66-50.3,63.55
		c-8.13-2.11-2.04-9.52-4.75-13.74c12.57-13.07,20.45-33.57,23.62-61.47C1416.28,1368.15,1410.59,1290.08,1396.3,1200.25z" clip-rule="evenodd"/><path fill="#fab688" fill-rule="evenodd" d="M1529.21,1186.39c-7.36-30.67-20.73-61.57-30.46-94.86c26.03-0.63,54.99-2.84,86.88-6.61
		c-0.51,31.46-0.91,64.29-1.2,98.49c50.05,88.51,16.53,191.91,29.91,236.4c-9.76,23.12-12.36,52.1-34.04,69.15
		c-8-0.62-3.85-8.44-6.86-12.1c6.82-15.36,10.55-34.76,11.18-58.18C1576.93,1351.92,1558.47,1274.5,1529.21,1186.39z" clip-rule="evenodd"/><path fill="#1b2452" fill-rule="evenodd" d="M1381.86,1493c17.15,0.89,1.5,13.78,12.66,16.68c24.41-12.9,37.92-48.05,47.65-63.57
		c5.13-8.17,8.84,2.22,11.37,13.85c4.03,18.52-1.05,12.05-3.33,26.84c-0.57,3.69,4.2,23.53,4.97,34.57
		c0.31,4.34-2.07,6.04-2.51,6.79c-4.47-7.52-8.3-30.64-12.36-44.77c-23.95,20.58-18.72,43.28-32.92,51.01
		c-34.07,3.65-52.49,4.55-78.35,5.09C1323.36,1518.24,1368.34,1525.41,1381.86,1493z" clip-rule="evenodd"/><path fill="#1b2452" fill-rule="evenodd" d="M1565.17,1475.17c16.54-2.07,3.94,12.91,15.14,13.78c20.96-16.48,27.44-52.36,33.91-68.85
		c3.41-8.67,8.85,0.62,13.39,11.3c7.24,17,1.19,11.69,1.72,26.2c0.13,3.62,8.31,21.76,11.06,32.17c1.09,4.1-0.87,6.12-1.16,6.91
		c-5.64-6.41-13.52-27.85-19.98-40.65c-19.11,23.73-9.97,44.52-22.13,54.33c-31.87,9.28-49.3,13.28-73.91,18.21
		C1513.9,1509.26,1558.18,1508.44,1565.17,1475.17z" clip-rule="evenodd"/><path fill="#a6a8ab" fill-rule="evenodd" d="M1356.14,659.38c-3.97,0-5.32,3.22-3.03,7.17s7.35,7.16,11.31,7.16c3.96,0,5.32-3.21,3.03-7.16
		C1365.16,662.59,1360.1,659.38,1356.14,659.38z" clip-rule="evenodd"/></svg>