<svg xmlns="http://www.w3.org/2000/svg" data-name="&lt;Layer&gt;" viewBox="0 0 2000 1828"><g data-name="Ñëîé 3"><path fill="#ffe4ce" fill-rule="evenodd" d="M813.07,1657.29c-5.78-2.74-12.48-3.62-18.55-5.63Z"/><path fill="#ffe4ce" fill-rule="evenodd" d="M813.45,1657l-1.22-.43-1.86-.9-1.57-.49h0Z"/><path fill="#ffe4ce" fill-rule="evenodd" d="M815.53,1657.79c.21.32-4.51-1.62-5.73-2-4.28-1.39-8.15-3-12.59-3.9Z"/><path fill="#fff" fill-rule="evenodd" d="M875.93,721.5c-17.15,1.81,10.52,50.6,14.55,60.43,20,48.65,99.21,86.9,151.07,76.09C1118.35,842,1183.16,668,1183.16,668s46.5,25.86,86.54,35.22c28.6,6.68,66,8.82,85,10.47,57,5,119.1,8.57,160.74,54.83,52.35,58.16,51.43,110.7,48.81,186.55-3.82,111.08-17.52,245.06-24.46,356.23-3.39,54.2-.42,90.66-5.06,136.57-4.36,43.3-13.35,94.07-26.06,139.25-9.92,35.26-15.55,46.57-49.6,58.41-4.69,1.63-36.36,9.92-36.36,9.92s-.19,42,2.63,84.15,8.65,84.61,8.65,84.61l-717.11-.52,9.22-188.76s-32.72-56.09-55.41-55.62c-13.85.29-29.61,8.8-33.27,10.32-18.42,7.68-40.74,6.55-60.75-18.69a284.59,284.59,0,0,1-38.91-66.46c-12.53-29.8-11.75-59.53-11.75-97,0-47,26.09-105.53,38.3-147,12.46-42.29,30.94-82,37.05-130.66,6.76-53.72,13.61-110.44,14.14-154.46.42-35.21,4.75-60,16.29-90.48,10.21-27,31.74-54.13,55-69.06,34.85-22.4,66.53-31.6,104.08-49.56,18.75-9,33.46-16.42,48.33-31.29C845.19,728.92,883.21,720.74,875.93,721.5Z"/><path fill="#94685b" fill-rule="evenodd" d="M1181.79,259.16c-1.84-3-21.09-27.81-34-28.17-96.61-2.7-448.65,92.15-448.65,92.15s-4.89,11.63-15.72,29.58-27.22,33-27.22,33l34.35-4.21s13.87,51.08,33.28,68.31c16,14.18,35.66,35.72,35.66,35.72l391,28.57,20.58-89.91a340.47,340.47,0,0,0,8.77-52.44c3.65-29.41,4.54-32.71,4.54-32.71l8.15-26.45C1193.69,313.61,1203.24,292.49,1181.79,259.16Z"/><path fill="#ffe4ce" fill-rule="evenodd" d="M1130.67,526.1s15.91-5.28,30.09-21.27c10.14-11.42,19.75-31.46,19-43.31-3.1-70.11-56.77-45.28-56.77-45.28l-16.79,8.57S1093,457,1082.37,459.76c-8.49,2.67-7.13-28.77-7.13-28.77l-35.55,2.12c-29.36-2.57-47.13-28.55-47.13-28.55l-16.44-21.73s-26.39,2-45.87-3.66a78.59,78.59,0,0,1-32-18.89s-40.56,3.73-76.93,4-68.55-2.86-68.55-2.86l-8.8,39.43,8.17,51.59s12.4,44.68,14.63,64c4.09,32.2,7.35,68.78,25.64,103.37,15.81,29.34,37.07,59.44,57.82,80.9,27.6,27.56,31,30.59,54.3,40,23.21,8.35,38.86-1.24,38.86-1.24s54.37-18.38,101.2-71.73S1130.67,526.1,1130.67,526.1Z"/><path fill="#ffe4ce" fill-rule="evenodd" d="M852.36,780.92c-5.48.19-6.63-17.75-7.41-22.44-2.79-16.72-18.19-42,0-55.68,13.11-9.83,37-11.43,52.08-16.61,27.74-9.51,56.77-29.56,82.16-44.45,21.65-12.69,46.18-25.63,62.42-45.35,9.92-12,20.88-24.4,32.32-35,12.37-11.48,25.18-19.55,38.61-29.63,2.52-1.89,8.89-10.6,13-8.53,9.57,4.79,5.5,21.69,7.18,30.08,5.16,25.83,13.84,62.07,28.73,84.41,8.94,13.41,28.13,23.64,40,35.47,4.1,4.09,16.93,7.55,18.41,13.47,2.68,10.72-14.73,30.32-18.86,40-16.62,38.79-46.14,64.12-78.57,88.45-17.12,12.84-36.45,33.52-57,41.75-15.62,6.25-31.72,10.74-48,14.82-4.75,1.19-16.51-1.1-19.31,4.49-2.67,5.35,1.6,16.06,2.69,21.55,2.35,11.69-.62,24.42,2.25,35.92,4.84,19.36-7.09,35.73-14.82,51.18-8.58,17.17-16.76,36.72-28.28,52.09-5.71,7.61-5.43,24.73-10.78,30.08s-17.1,5-24.24,3.59c-28.34-5.67-73-4.13-92.49-30.08-3-4,10-16.62,11.22-21.55,2.65-10.58,2.7-29.15.9-40-6.26-37.55-20.58-72.11-35.47-106.86-12.09-28.2-6-48.33,16.61-66.45,6.69-5.35,12.46-11.56,18.41-17.51C845.71,786.44,854.6,780.85,852.36,780.92Z"/><path fill="#ffe4ce" fill-rule="evenodd" d="M813.6,1657.7c.92-3.75-5.94-4.15-9.46-5.24-10.62-3.29-21.71-4.56-32.52-7.17-19-4.6-40.25-5.58-57.63-15.34-12.1-6.79-20.54-17.85-30.82-26.67-6.69-5.73-13.44-11.49-20.25-17-.78-.63-6.36-3.25-6.46-4-.46-3.53,12.28-10.26,14.76-11.24,18.12-7.17,36-16.09,51.3-28.86,11.27-9.4,27.39-15.32,36-27.54,2.2-3.1,15-22.12,18.27-18.91,9.88,9.74,29.09,24.79,32.27,39.37,1.21,5.54-3.29,13.19-4,18.86-1.81,14.65.15,31.49,1.14,46.16s0,29.38,2.83,44.08C809.55,1646.64,812.88,1660.65,813.6,1657.7Z"/><path fill="#aed684" fill-rule="evenodd" d="M702.72,326.63l-1-18,10.07-15.67-1-10.21,8.93,1.43,22-20.37.87-12.26,89.11-60.22,4,27.82,57.78-38.39L955.58,192,979,186.76l36.28-1.37,23.19,1.9,94.34,15.9,2.14,14.25,12.42,4.79,5.26,17.9-8.9,19.39-15.36,18.92-29.57,20.75s-34.37,17.22-84.39,33.53c-40.87,13.32-93.12,25.92-137.64,29C832.64,364.78,774.1,363.25,744,355,706.6,344.63,702.72,326.63,702.72,326.63Z"/><path fill="#95ba6d" fill-rule="evenodd" d="M718.06,284l24.48-19.67L745,289Z"/><path fill="#95ba6d" fill-rule="evenodd" d="M720.05,311.61l-6.16-26.78,135.7,27.75-67,50.2-22.48-3.93L757.75,320Z"/><path fill="#95ba6d" fill-rule="evenodd" d="M851.38,362.06l-2-48.5,79,16-46.71,31.34Z"/><path fill="#95ba6d" fill-rule="evenodd" d="M931.25,353.69l-4.16-24.23L974,343.4Z"/><path fill="#95ba6d" fill-rule="evenodd" d="M744,254.67l86.83-63.08,3.21,29.33L798.81,246l8.56,25.76Z"/><path fill="#95ba6d" fill-rule="evenodd" d="M880.57,294.92l54.3-50.73-1.43,61.44Z"/><path fill="#95ba6d" fill-rule="evenodd" d="M947.26,278.25,1003.94,227l7.62,38.34-26.67,21.44Z"/><path fill="#95ba6d" fill-rule="evenodd" d="M953.92,190.84l25.25-6.67,46.2,1.67,19.05,2.38L1133.26,203l-63.11,53.11-9.29-29.3L1037,245.14l-.71-37.39Z"/><path fill="#729051" fill-rule="evenodd" d="M808.89,270.63l-11-23.82,94.31-66.92,144.56,29.29.72,36-26.91,21.67-8.81-35.72L894.14,214.42Z"/><path fill="#729051" fill-rule="evenodd" d="M812.7,304.44,898,239l5.71,36-24,21.2,1.43,24.53Z"/><path fill="#729051" fill-rule="evenodd" d="M1135.88,269l-.24-58.83,13.1,16.91,4.29,18.82-6.91,15.71Z"/><path fill="#571519" fill-rule="evenodd" d="M536,447q7.34-2.19,12.58.5a13.65,13.65,0,0,1,7,7.39,14.07,14.07,0,0,1-.35,10.2c-1.41,3.67-4.46,6.59-9.18,8.77a37.11,37.11,0,0,1-19.21,2.48,36.4,36.4,0,0,1-16.21-6.51A33.8,33.8,0,0,1,499.76,456a39.67,39.67,0,0,1-3-19.71,64.93,64.93,0,0,1,3.48-15.73q2.94-8.75,6.05-17.59t5.21-17.25a35.92,35.92,0,0,0,.84-15.31A18.77,18.77,0,0,0,505.48,359q-5.61-4.54-18.14-5.28l-2.15.54c-.71.18-1.53.42-2.45.73a53.6,53.6,0,0,0-18.45,22.58,90.27,90.27,0,0,0-7.39,28.84q-.94,7.67-5.44,11.37a13.33,13.33,0,0,1-18.94-1q-4.15-4.21-4.19-12.1A123.26,123.26,0,0,1,433,380.88a100.47,100.47,0,0,1,9.9-22.95,92.08,92.08,0,0,1,14.73-19,52.42,52.42,0,0,1,18.53-12,43.78,43.78,0,0,1,21.79-2q11.69,1.69,24.63,10.91A39.46,39.46,0,0,1,535,349.48a52.37,52.37,0,0,1,5.51,16.45,57.45,57.45,0,0,1,0,17.66,106.89,106.89,0,0,1-4.35,18,97,97,0,0,1-3.95,9.79,96.37,96.37,0,0,0-5,14A48.58,48.58,0,0,0,525.35,439c.07,4.25,1.75,7.41,5,9.49a2,2,0,0,0,1.27,0,4,4,0,0,0,2.29-.63A7.18,7.18,0,0,1,536,447Zm9.48,69.65A19.14,19.14,0,0,1,551.41,490a19.19,19.19,0,0,1,14.69-2.72,18.29,18.29,0,0,1,12.23,8.42,19.74,19.74,0,0,1-6,27.11,18.31,18.31,0,0,1-14.63,2.48A19.23,19.23,0,0,1,545.52,516.62Z"/><path fill="#571519" fill-rule="evenodd" d="M1330.43,488.55q4.24,4.15,4.4,8.72a10.62,10.62,0,0,1-2.38,7.53,10.89,10.89,0,0,1-7,3.6q-4.53.64-9.39-2.92a28.81,28.81,0,0,1-8.92-12.09,28.24,28.24,0,0,1-1.69-13.43,26.25,26.25,0,0,1,5.27-12.6,30.69,30.69,0,0,1,12.23-9.45,50.32,50.32,0,0,1,12-3.57q7-1.29,14.19-2.52t13.66-3a27.55,27.55,0,0,0,10.68-5.19,14.4,14.4,0,0,0,5.16-8.95q1-5.5-3.25-14.27l-1.17-1.26q-.59-.62-1.41-1.38a41.52,41.52,0,0,0-22.25-4,69.34,69.34,0,0,0-22.32,5.84q-5.55,2.25-9.76.59A10.34,10.34,0,0,1,1312,407q1.29-4.39,6.62-7.38a94.72,94.72,0,0,1,17.82-5.81,78.17,78.17,0,0,1,19.28-1.93,71.36,71.36,0,0,1,18.39,2.85,40.35,40.35,0,0,1,15.12,8,33.85,33.85,0,0,1,9.58,14q3.26,8.57,1.88,20.8a30.71,30.71,0,0,1-4.58,13.59,40.61,40.61,0,0,1-9.07,9.92,44.61,44.61,0,0,1-12,6.67,82.8,82.8,0,0,1-13.81,3.81,72.79,72.79,0,0,1-8.12,1,74.07,74.07,0,0,0-11.37,1.88,37.55,37.55,0,0,0-10,3.87,8.33,8.33,0,0,0-4.55,7c.15.49.3.78.46.86a3.16,3.16,0,0,0,1.29,1.32A6.1,6.1,0,0,1,1330.43,488.55Zm-43.63,32.64a14.86,14.86,0,0,1,20.27-6,14.88,14.88,0,0,1,7.37,8.94,14.2,14.2,0,0,1-1.1,11.45,15.32,15.32,0,0,1-20.64,6.14,14.21,14.21,0,0,1-7.18-9A14.88,14.88,0,0,1,1286.8,521.19Z"/><path fill="#571519" fill-rule="evenodd" d="M604.7,715.35a9.53,9.53,0,0,1,5.48,4.74,7.83,7.83,0,0,1,.5,5.84,8.08,8.08,0,0,1-3.82,4.47c-2,1.15-4.38,1.36-7.28.65a21.36,21.36,0,0,1-9.54-5.79,20.87,20.87,0,0,1-5-8.75,19.53,19.53,0,0,1,.06-10.15,22.78,22.78,0,0,1,5.73-9.94,37.68,37.68,0,0,1,7.22-5.84q4.47-2.88,9-5.74t8.54-5.89a20.66,20.66,0,0,0,5.88-6.59,10.75,10.75,0,0,0,1-7.61q-.88-4.05-6.26-8.88l-1.17-.53a13.62,13.62,0,0,0-1.36-.55,30.74,30.74,0,0,0-16.41,3.53,51.81,51.81,0,0,0-13.69,10.32,9.6,9.6,0,0,1-6.53,3.17,8,8,0,0,1-5.59-1.91,7.94,7.94,0,0,1-2.57-5.36c-.24-2.25.59-4.57,2.46-6.94a70.11,70.11,0,0,1,10.61-9,57.78,57.78,0,0,1,12.7-6.77,53.13,53.13,0,0,1,13.44-3.25,30.15,30.15,0,0,1,12.66,1.25,25.2,25.2,0,0,1,10.53,6.91q4.65,4.95,7.17,13.75a22.88,22.88,0,0,1,.7,10.64,30.24,30.24,0,0,1-3.43,9.38,33.43,33.43,0,0,1-6.33,8,62.08,62.08,0,0,1-8.41,6.51,54.73,54.73,0,0,1-5.29,3,53.73,53.73,0,0,0-7.28,4.5,28.42,28.42,0,0,0-5.77,5.48,6.18,6.18,0,0,0-1.15,6.07c.24.3.43.45.57.47a2.27,2.27,0,0,0,1.26.54A4.1,4.1,0,0,1,604.7,715.35ZM584,750.1a11,11,0,0,1,12.22-9.87,11.05,11.05,0,0,1,7.59,4.06,10.57,10.57,0,0,1,2.48,8.18,11.38,11.38,0,0,1-12.44,10,10.54,10.54,0,0,1-7.48-4.15A11,11,0,0,1,584,750.1Z"/><path fill="#571519" fill-rule="evenodd" d="M695.17,154.75a8.78,8.78,0,0,1,6.55,1.2,7.26,7.26,0,0,1,3.11,4.39,7.47,7.47,0,0,1-1,5.31,8.71,8.71,0,0,1-5.44,3.9,19.66,19.66,0,0,1-10.24-.14,19.14,19.14,0,0,1-8-4.6,17.84,17.84,0,0,1-4.68-8.05,21,21,0,0,1-.1-10.53,34.37,34.37,0,0,1,3-8q2.21-4.35,4.47-8.75t4-8.63a18.78,18.78,0,0,0,1.58-7.94,9.84,9.84,0,0,0-2.74-6.49c-1.73-1.86-4.75-3.23-9.09-4.11l-1.16.12c-.39,0-.84.11-1.34.2a28.33,28.33,0,0,0-11.33,10.44,47.46,47.46,0,0,0-6,14.53,8.83,8.83,0,0,1-3.69,5.54,7.06,7.06,0,0,1-9.83-1.94,8.87,8.87,0,0,1-1.29-6.64,65.17,65.17,0,0,1,4.18-12.07,53.8,53.8,0,0,1,6.89-11.27,48.34,48.34,0,0,1,9.12-8.81,27.47,27.47,0,0,1,10.58-4.92,23.12,23.12,0,0,1,11.54.56q6,1.76,12.07,7.54a20.79,20.79,0,0,1,5.5,8.08,27.15,27.15,0,0,1,1.65,9,30.14,30.14,0,0,1-1.29,9.23,56.91,56.91,0,0,1-3.61,9.07,50.14,50.14,0,0,1-2.79,4.83,48.28,48.28,0,0,0-3.66,6.95,25.41,25.41,0,0,0-2,7,5.64,5.64,0,0,0,1.91,5.33c.33.13.55.17.66.11a2.06,2.06,0,0,0,1.25-.16A4,4,0,0,1,695.17,154.75ZM695,191.88A10.12,10.12,0,0,1,700,178.39a10.13,10.13,0,0,1,7.88-.32,9.66,9.66,0,0,1,5.78,5.31,10.44,10.44,0,0,1-5.16,13.73,9.73,9.73,0,0,1-7.84.21A10.12,10.12,0,0,1,695,191.88Z"/><path fill="#571519" fill-rule="evenodd" d="M1290.68,194.25a8.18,8.18,0,0,1,6.15,1,6.79,6.79,0,0,1,3,4.07,7,7,0,0,1-.82,5,8.17,8.17,0,0,1-5.06,3.72,18.47,18.47,0,0,1-9.6,0,18.13,18.13,0,0,1-7.56-4.22,16.73,16.73,0,0,1-4.48-7.49,19.53,19.53,0,0,1-.24-9.88,32.22,32.22,0,0,1,2.71-7.51q2-4.11,4.08-8.26c1.39-2.76,2.6-5.48,3.66-8.15a17.88,17.88,0,0,0,1.38-7.47,9.22,9.22,0,0,0-2.66-6q-2.46-2.59-8.58-3.74l-1.09.12c-.36.05-.78.12-1.24.21a26.53,26.53,0,0,0-10.5,9.93,44.67,44.67,0,0,0-5.46,13.7,8.21,8.21,0,0,1-3.38,5.25,6.87,6.87,0,0,1-5,1.08,6.8,6.8,0,0,1-4.28-2.78,8.26,8.26,0,0,1-1.29-6.21,60.31,60.31,0,0,1,3.77-11.37,50.44,50.44,0,0,1,6.31-10.66,45.52,45.52,0,0,1,8.44-8.38,25.86,25.86,0,0,1,9.87-4.74,21.62,21.62,0,0,1,10.83.37q5.63,1.58,11.41,6.92a19.48,19.48,0,0,1,5.26,7.51,25.59,25.59,0,0,1,1.67,8.43,28.35,28.35,0,0,1-1.1,8.68,53.21,53.21,0,0,1-3.27,8.55,47.36,47.36,0,0,1-2.56,4.56,47.09,47.09,0,0,0-3.34,6.57,24.17,24.17,0,0,0-1.79,6.6,5.33,5.33,0,0,0,1.86,5,1,1,0,0,0,.62.09,2,2,0,0,0,1.17-.17A3.6,3.6,0,0,1,1290.68,194.25Zm.26,34.82a9.49,9.49,0,0,1,4.57-12.71,9.56,9.56,0,0,1,7.4-.41,9.08,9.08,0,0,1,5.48,4.91,9.79,9.79,0,0,1-4.66,12.95,9.09,9.09,0,0,1-7.35.29A9.51,9.51,0,0,1,1290.94,229.07Z"/></g><g data-name="Ñëîé 2"><path fill="#571519" d="M964.14,735.23a5.72,5.72,0,0,1-2.54-10.84c22.62-11.16,47.12-28.79,67.21-48.38,27.29-26.37,37.56-48.41,50.11-79a5.71,5.71,0,1,1,10.57,4.33c-13.1,31.95-23.85,55-52.73,82.88-20.89,20.37-46.45,38.76-70.1,50.42A5.72,5.72,0,0,1,964.14,735.23Z"/><path fill="#571519" d="M844,700.93a5.7,5.7,0,0,1-4.31-2c-26.28-30.17-50.91-71.49-64.29-107.84-6.93-18.74-9.54-40.8-12.06-62.13-2.3-19.4-4.67-39.46-10.25-56.81l-.29-.92c-8.78-28.55-23.47-76.34-6.15-110.76a5.72,5.72,0,0,1,10.21,5.14C741.64,396,755,439.26,763.77,467.92l.26.84c5.9,18.34,8.34,39,10.69,58.89,2.56,21.63,5,42.06,11.43,59.53,12.94,35.13,36.77,75.09,62.2,104.29a5.72,5.72,0,0,1-4.31,9.46Z"/><path fill="#571519" d="M1123.19,533.34a5.72,5.72,0,0,1-1.38-11.26c33.84-8.46,49.42-37.18,52.47-59.2,1.81-13.81-4.53-33.32-18.3-42-12.51-7.88-29-5.6-47.83,6.62a5.71,5.71,0,0,1-6.23-9.58c28.8-18.73,48.6-14,60.15-6.71,18.31,11.53,25.79,36,23.53,53.19-3.55,25.59-21.65,58.91-61,68.76A6.07,6.07,0,0,1,1123.19,533.34Z"/><path fill="#571519" d="M1126.5,480.14a5.64,5.64,0,0,1-2.57-.61,5.72,5.72,0,0,1-2.52-7.68c.77-1.51,7.7-14.9,16-20.34a5.71,5.71,0,0,1,6.25,9.56c-4.35,2.84-9.72,11.29-12.08,15.94A5.72,5.72,0,0,1,1126.5,480.14Z"/><path fill="#571519" d="M881.4,595.36a5.69,5.69,0,0,1-1.93-.34c-2.73-1-26.56-10.07-27.86-28.22-1-7.4,2.75-12.4,6.08-16.82,3.84-5.08,7.46-9.89,6.86-19.9-.35-5.83-3.59-17.55-9.89-29.48a5.71,5.71,0,1,1,10.1-5.34c6.18,11.7,10.68,25.42,11.2,34.14.85,14.21-4.93,21.87-9.14,27.46-3.19,4.22-4.27,5.93-3.88,8.49a4.36,4.36,0,0,1,0,.52c.56,9.23,14.88,16.41,20.35,18.4a5.72,5.72,0,0,1-1.94,11.09Z"/><path fill="#571519" fill-rule="evenodd" d="M962.27,495.05c-1.91-13.94-7.54.45-17.24,1s-19-10.76-18.19,3.25c1.91,13.94,10.1,24.27,19.73,22.61C957.29,520.22,963.11,509.06,962.27,495.05Z"/><path fill="#571519" d="M935.09,501.08a57.16,57.16,0,0,1-16.78-2.37,5.71,5.71,0,0,1,3.36-10.92c16.19,5,36.83-.5,50.1-8.16a5.71,5.71,0,0,1,5.71,9.9C966.28,496,950.4,501.08,935.09,501.08Z"/><path fill="#571519" d="M905.16,476.6a20.26,20.26,0,0,1-9.85-2.19,14.1,14.1,0,0,1-7.23-10.75,5.72,5.72,0,0,1,11.3-1.73c.26,1.69.86,2.15,1.4,2.45,7.87,4.29,36-8.23,52.79-15.71,9.34-4.15,17.41-7.74,23.46-9.63a5.71,5.71,0,0,1,3.4,10.91c-5.41,1.69-13.58,5.32-22.22,9.16C935.7,469.13,917.69,476.6,905.16,476.6Z"/><path fill="#571519" fill-rule="evenodd" d="M825.86,510.76c-1.85-12.86-6.46.39-15,2s-17.82-8.67-16,3.12c1.85,12.87,11.05,22,19.61,20.46S828.79,523.57,825.86,510.76Z"/><path fill="#571519" d="M805.4,516.08c-7.3,0-14.57-1.29-20.41-4.53a5.71,5.71,0,0,1,5.54-10c10.1,5.61,28.18,2.9,36.69-1.51a5.71,5.71,0,1,1,5.26,10.14C826.12,513.48,815.74,516.08,805.4,516.08Z"/><path fill="#571519" d="M817.46,483c-9.17,0-19.61-3-28.42-5.54-6.4-1.84-12.44-3.57-16.67-3.94a5.71,5.71,0,0,1,1-11.38c5.34.46,11.91,2.34,18.86,4.34,17.95,5.17,31.95,8.45,35.3,0a5.71,5.71,0,0,1,10.62,4.2C834.42,480.05,826.57,483,817.46,483Z"/><path fill="#571519" d="M1170,430a5.64,5.64,0,0,1-2.15-.42,5.71,5.71,0,0,1-3.14-7.44c10.57-26,16.08-62.21,12.81-84.32a5.71,5.71,0,1,1,11.3-1.67c3.58,24.27-2.11,62.24-13.52,90.29A5.72,5.72,0,0,1,1170,430Z"/><path fill="#571519" d="M1173.44,360.54a5.81,5.81,0,0,1-2.23-.45,5.71,5.71,0,0,1-3.46-5.77c0-.48,4-47.73-21.36-73a5.71,5.71,0,1,1,8.07-8.09c18.17,18.15,23.35,44.74,24.63,62.73,8.44-16.05,16.63-42.67-.76-69.42a379.66,379.66,0,0,0-24.18-32.73,5.72,5.72,0,0,1,8.82-7.27,391.77,391.77,0,0,1,24.92,33.75c31.76,48.87-9.71,97.81-10.13,98.3A5.7,5.7,0,0,1,1173.44,360.54Z"/><path fill="#571519" d="M668.35,393.85a60.25,60.25,0,0,1-20.84-3.53,5.72,5.72,0,0,1,1.21-10.94c.2,0,26.08-5.39,42-52.13a5.71,5.71,0,1,1,10.81,3.7c-9.77,28.61-23.21,43.62-33.85,51.43a48.52,48.52,0,0,0,22.47-5,5.72,5.72,0,0,1,5.12,10.22A59.88,59.88,0,0,1,668.35,393.85Z"/><path fill="#571519" d="M959.74,388.4a110.84,110.84,0,0,1-63.17-19.62,5.71,5.71,0,1,1,6.48-9.4,95.38,95.38,0,0,0,37.23,15.71c17.38,3.6,36.31,1.42,51.84-2.06a121.5,121.5,0,0,1-39.76-13.7,5.71,5.71,0,0,1,5.56-10c33.8,18.83,67.86,13,68.19,12.92a5.72,5.72,0,0,1,3.36,10.84C1027.81,373.85,994.82,388.4,959.74,388.4Z"/><path fill="#571519" d="M763.16,498.6a5.71,5.71,0,0,1-5.21-3.36C753.19,484.72,743.4,475,733,464.63c-22.81-22.73-51.2-51-39.48-103.28a5.71,5.71,0,1,1,11.15,2.5c-10.34,46.1,13.42,69.79,36.4,92.69,11.12,11.09,21.63,21.57,27.25,34a5.72,5.72,0,0,1-2.85,7.56A5.82,5.82,0,0,1,763.16,498.6Z"/><path fill="#571519" d="M1034.82,422.26c-14.31,0-39.3-4.89-62-33.81a5.71,5.71,0,1,1,9-7.05c28.93,36.89,61.49,28.65,61.82,28.57a5.71,5.71,0,1,1,3,11A48.79,48.79,0,0,1,1034.82,422.26Z"/><path fill="#571519" d="M1078.19,467.88a5.69,5.69,0,0,1-5.7-5.36c0-.38-2.56-38.15-22.82-59.88a5.71,5.71,0,1,1,8.36-7.79c16,17.21,22.23,42,24.54,56.12,6.47-7,14.59-20.05,12.77-40.48a5.71,5.71,0,1,1,11.38-1c3.54,39.69-24.41,56.89-25.6,57.6A5.77,5.77,0,0,1,1078.19,467.88Z"/><path fill="#571519" d="M1089.66,1687.21c-11.89,0-23.08,0-33.37-.12-56.36-.39-116.46-1.79-164.87-3.86-73.33-3.12-74.74-5.11-76.69-7.86-20.26-28.64-14.67-147.57-4-166.81,2.72-4.9,6.1-5.76,8.5-5.63,79.5,4.59,171.83-4.54,261.12-13.38,147.69-14.61,275.23-27.23,319.74,22.5a5.72,5.72,0,1,1-8.52,7.62c-40.63-45.42-171.53-32.46-310.09-18.75-89,8.81-181.05,17.91-261,13.53-7.73,14.08-14.3,124.59,2.64,152.85,33.43,7,438.69,19.57,564.1-9.49q8.58-2,16.7-3.78c36.61-8.2,65.56-14.68,87.78-33.32,6.63-9.92,40.33-123.78,40.82-244.42.3-73,6.4-146.79,12.29-218.13,3.69-44.66,7.51-90.84,9.86-136.31.56-10.91,1.35-22,2.2-33.77,5.46-76,11.64-162.23-46.08-216.23-44-41.15-104.17-47.08-162.36-52.81-67.54-6.65-137.38-13.52-184.34-74.23-21.57-27.88-26-49.53-33.47-85.39-.93-4.5-1.91-9.23-3-14.24a5.72,5.72,0,1,1,11.18-2.38c1.07,5,2.06,9.79,3,14.31,7.32,35.41,11.36,54.92,31.32,80.71,44,56.81,108.29,63.14,176.42,69.85,60.09,5.92,122.22,12,169,55.83,61.71,57.73,55.31,146.8,49.68,225.4-.84,11.7-1.64,22.75-2.2,33.54-2.35,45.65-6.18,91.92-9.87,136.66-5.88,71.13-12,144.68-12.25,217.24-.5,121.48-35.71,245.34-44.55,252.82-24.4,20.67-56.18,27.78-93,36-5.39,1.21-10.92,2.45-16.61,3.76C1323.42,1684.32,1184.65,1687.21,1089.66,1687.21Z"/><path fill="#571519" d="M806.84,1537.8a5.71,5.71,0,0,1-5.25-3.46c-3.41-8-9.25-13.6-15.44-19.58-2.88-2.78-5.87-5.67-8.73-8.89a5.71,5.71,0,1,1,8.54-7.59c2.57,2.9,5.4,5.63,8.13,8.27,6.73,6.5,13.69,13.22,18,23.29a5.69,5.69,0,0,1-5.25,8Z"/><path fill="#571519" d="M809.15,1661.11a5.72,5.72,0,0,1-2.13-.41c-12.57-5-26-7.62-40.25-10.35-17.26-3.32-35.11-6.75-51.24-15-15.49-7.9-28-19.77-40.08-31.25-5.17-4.92-10.52-10-15.94-14.59a5.71,5.71,0,0,1,7.38-8.72c5.67,4.8,11.14,10,16.43,15,12,11.43,23.38,22.22,37.4,29.36,14.68,7.49,31,10.61,48.21,13.93,14.13,2.71,28.75,5.52,42.34,11a5.71,5.71,0,0,1-2.12,11Z"/><path fill="#571519" d="M616.09,1600.29a33.69,33.69,0,0,1-12.77-2.28c-24.44-9.94-41.14-36.71-54.89-61-52-92.08-20.73-184,9.55-272.86,10.6-31.09,21.55-63.24,28.69-94.81,7-31,12.4-64.29,17.47-107.93,2.05-17.61,2.87-35.72,3.74-54.88,2.57-56.75,5.22-115.43,41.22-161.74,27.08-34.83,65.37-51.4,102.41-67.42,28.25-12.22,57.46-24.86,81-45.52a5.71,5.71,0,0,1,7.54,8.58c-24.87,21.85-54.92,34.85-84,47.43-37.36,16.16-72.65,31.43-97.93,63.94-33.77,43.44-36.34,100.28-38.83,155.25-.84,18.52-1.7,37.67-3.8,55.68-5.12,44.06-10.57,77.72-17.67,109.12-7.28,32.17-18.33,64.61-29,96-30.83,90.48-60,175.94-10.42,263.56,9.89,17.5,26.45,46.78,49.24,56.06,14.15,5.76,43-5.49,85.82-33.45,24.37-15.93,52-34,72-56.6,43.68-49.24,172.43-365.33,193.71-426.82-1.85.8-2.91,1.24-3.55,1.45-22.48,7.41-119.54,2.33-135.78-42.45a24.57,24.57,0,0,1-1-12.46,183.43,183.43,0,0,0-10.78,19.21c-.6,1.22-1.11,2.24-1.5,3-7.19,13.73-14.32,28-21.2,41.81-20.66,41.41-42,84.23-69.83,121.67-25.85,34.81-57.31,65.81-87.73,95.79q-7.32,7.21-14.59,14.42l-1.57,1.56c-20.62,20.46-38.43,38.14-45.74,65.9a5.71,5.71,0,0,1-11-2.91c8.1-30.77,27.84-50.36,48.74-71.1l1.57-1.56q7.27-7.23,14.62-14.45c30.11-29.68,61.25-60.36,86.58-94.46,27.21-36.63,48.34-79,68.77-120,6.92-13.85,14.06-28.18,21.31-42,.37-.7.84-1.64,1.4-2.77,8.55-17.18,19-35.25,32-39.13a16.55,16.55,0,0,1,13.42,1.6,6.16,6.16,0,0,1,3.14,5.88c-.38,4.19-4.06,5.54-7.62,6.83a35.45,35.45,0,0,0-3.46,1.4c-3.62,4.51-6.94,11.76-4.73,17.87,12.62,34.8,99.73,42.67,121.45,35.49.85-.3,3.62-1.52,6.39-2.74,9-4,9.35-4.11,11.87-2.9a5.75,5.75,0,0,1,3.06,3.7c3,11.33-80,205.6-80.8,207.55C860.08,1342.46,801.46,1474,774,1505c-21.06,23.75-49.37,42.26-74.34,58.59C672.58,1581.26,640,1600.29,616.09,1600.29Zm346.09-539.57Z"/><path fill="#571519" d="M949.22,1066.88a5.57,5.57,0,0,1-1.78-.29,5.72,5.72,0,0,1-3.65-7.2c5.65-17.24,15.14-32.43,24.32-47.13,11-17.59,21.37-34.2,25.8-54.14,4.93-22.17,2.43-43.29-.22-65.66-1.55-13.1-3.15-26.66-3.15-40.51a5.72,5.72,0,0,1,11.43,0c0,13.18,1.56,26.39,3.07,39.17,2.64,22.33,5.37,45.42,0,69.49-4.86,21.84-16.25,40.07-27.27,57.71-9.22,14.76-17.94,28.7-23.15,44.62A5.71,5.71,0,0,1,949.22,1066.88Z"/><path fill="#571519" d="M1000.57,812.86a5.71,5.71,0,0,1-5.72-5.71c0-10.31,2-21.14,3.89-31.62,2.39-13.09,4.85-26.63,3.19-38.28a1.2,1.2,0,0,0,0-.23c-4.48-.48-18,9-19.66,13.15a5.89,5.89,0,0,1-7.34,3.35,5.58,5.58,0,0,1-3.49-7c2.6-7.8,20.72-21.86,31.79-20.83,5.47.5,9.23,4.21,10,9.95,1.93,13.49-.71,28-3.26,41.93-1.9,10.44-3.7,20.31-3.7,29.58A5.71,5.71,0,0,1,1000.57,812.86Z"/><path fill="#571519" d="M833.24,1042.8a5.72,5.72,0,0,1-4.75-8.88c23.63-35.44,5.58-79.79-10.34-118.92-3.32-8.14-6.44-15.82-9.17-23.31-1-2.61-2-5.4-3.19-8.31-6-15.18-13.43-34.07-8.8-50.27,3.61-12.63,14.45-22.37,24-31,2.73-2.45,5.36-4.81,7.67-7.12a229.39,229.39,0,0,1,44.82-34.86c.77-.47,1.61-1.07,2.49-1.7,4.4-3.14,11.76-8.39,19.58-3.7,16.14,9.68,44.67,42.1,48,62.25,1.35,8.1-.2,16.23-1.7,24.09-.57,3-1.14,6-1.5,8.86-.18,1.43-.33,3.15-.5,5-1,10.94-2.31,25.93-10.78,32.71a12.71,12.71,0,0,1-12.1,2.41c-7.6-2.42-12.76-11.49-14.23-16.64-1.86-6.49-1.94-14.91-2-23-.08-8.51-.16-17.31-2.27-22-2.31-2.42-12.92-9.49-17.85-11.82-3.24,3.24-9.41,10.45-13.39,15.1-4.21,4.92-7.85,9.17-10,11.31a5.71,5.71,0,0,1-8.08-8.08c1.83-1.83,5.5-6.12,9.39-10.66,8.77-10.24,14.31-16.61,17.39-18.66a7,7,0,0,1,5.87-.74c5.5,1.47,24.3,13.26,26.69,18.05,3.47,6.94,3.57,16.87,3.67,27.38.07,7.38.14,15,1.57,20,1,3.35,4.25,8.11,6.72,8.9.33.1.67.21,1.5-.46,4.66-3.72,5.87-17.43,6.53-24.79.18-2,.35-3.91.54-5.46.4-3.16,1-6.43,1.62-9.58,1.31-6.87,2.67-14,1.65-20.07-2.52-15.12-27.57-45.29-42.64-54.34-1.3-.77-4,1-7.07,3.21-1.14.81-2.23,1.58-3.24,2.19a218.45,218.45,0,0,0-42.63,33.15c-2.44,2.44-5.22,4.94-8.1,7.53-8.42,7.57-18,16.15-20.67,25.62-3.56,12.48,3.1,29.37,8.45,42.94,1.19,3,2.32,5.9,3.3,8.6,2.65,7.28,5.74,14.87,9,22.9,17,41.76,36.26,89.09,9.27,129.57A5.7,5.7,0,0,1,833.24,1042.8Zm65.43-214.15Z"/><path fill="#571519" d="M916.37,950.5H916a5.71,5.71,0,0,1-5.35-6c2.55-42.18-26.34-87.31-46.38-107.35a5.71,5.71,0,1,1,8.08-8.08c18.5,18.51,52.7,66.58,49.7,116.11A5.71,5.71,0,0,1,916.37,950.5Z"/><path fill="#571519" d="M945.36,911.28a10.82,10.82,0,0,1-4.5-1c-10.59-4.85-13.41-26.52-13.44-26.74a5.71,5.71,0,0,1,11.34-1.41c.8,6.38,4.26,16.22,6.68,17.67l.33-.21c5.16-3.45,9.26-18.16,11.24-25.23.42-1.54.82-2.93,1.17-4.11,9.23-30.79,11.22-46.2,4.78-76.78-.3-1.45-.6-3.06-.93-4.78-1.55-8.31-3.91-20.86-9.63-25-5.9-4.22-18.75-.71-29.08,2.11-6.58,1.79-12.79,3.49-17.77,3.49a5.72,5.72,0,0,1,0-11.43c3.45,0,9-1.5,14.77-3.08,13.31-3.64,28.41-7.76,38.73-.38,9.46,6.76,12.21,21.43,14.21,32.14.31,1.63.59,3.16.88,4.53,6.9,32.76,4.68,50.07-5,82.42-.33,1.11-.7,2.43-1.11,3.89-2.87,10.3-7.21,25.86-15.9,31.66A12.16,12.16,0,0,1,945.36,911.28Z"/><path fill="#571519" d="M1000.75,852.25c-9.64,0-21.07-6.32-25-8.65a5.71,5.71,0,1,1,5.88-9.79c8.24,5,18.05,8.09,21,6.74.15-.07.44-.2.62-1.28.22-1.37-1.12-3.8-2.3-5.94a39.72,39.72,0,0,1-2.28-4.57c-3.58-8.94-8.29-17.75-12.85-26.27-2.36-4.42-4.72-8.83-7-13.29-1.64-3.28-3.42-7.22-5.37-11.52-8-17.79-20.2-44.67-36-50-5.29-1.79-10.78-1.09-16.78,2.15-5.77,3.11-10.77,7.45-16.06,12-2.13,1.85-4.26,3.7-6.44,5.47L895,749.93c-6.84,5.51-13.92,11.2-19.37,17.74a5.71,5.71,0,1,1-8.77-7.32c6.17-7.41,13.7-13.46,21-19.32l3.19-2.58c2.08-1.69,4.11-3.45,6.15-5.22,5.53-4.8,11.24-9.77,18.13-13.48,8.83-4.75,17.53-5.73,25.86-2.91,20.55,6.94,33.41,35.37,42.8,56.13,1.88,4.15,3.59,7.95,5.18,11.12,2.18,4.36,4.49,8.68,6.81,13,4.7,8.8,9.57,17.89,13.38,27.42a29,29,0,0,0,1.67,3.28c2,3.59,4.45,8.05,3.57,13.35a12.59,12.59,0,0,1-7.1,9.78A15.87,15.87,0,0,1,1000.75,852.25Z"/><path fill="#571519" d="M849.34,782.55a5.71,5.71,0,0,1-5.71-5.71c0-7.9-2.74-16.28-5.63-25.16-2.6-7.95-5.28-16.18-6-24.5-.6-6.61-1.85-20.37,7.94-26.49,13.12-8.2,29.53-7,42.72-6l3,.21c10.65.77,22,.4,33,0,6.27-.21,12.75-.42,19-.42,2.34,0,5.36-.28,8.57-.57,9.09-.84,19.38-1.79,26.81,1.92,5.1,2.56,7.83,6.92,7.47,12-.75,10.61-15.1,20.73-21.05,22.72a5.71,5.71,0,1,1-3.61-10.84c5.06-1.69,13.73-10.06,13.26-12.81h0a3.66,3.66,0,0,0-1.18-.81c-4.51-2.25-13.46-1.43-20.65-.77-3.48.32-6.76.62-9.62.62-6.11,0-12.5.21-18.68.41-11.27.37-22.92.76-34.17,0l-3-.22c-12.13-.91-25.86-1.94-35.81,4.27-3.84,2.4-3,11.43-2.62,15.77.63,7,3,14.29,5.52,22,3,9.33,6.19,19,6.19,28.7A5.71,5.71,0,0,1,849.34,782.55Z"/><path fill="#571519" d="M892.35,744.45c-8.72,0-15-1.38-21.79-4.75a5.71,5.71,0,0,1,5.1-10.22c5.18,2.58,9.7,3.55,16.69,3.55a5.71,5.71,0,0,1,0,11.42Z"/><path fill="#571519" d="M1300.51,1482.65c-.22,0-.45,0-.67,0a5.72,5.72,0,0,1-5-6.34c6.89-58.64,11.2-131,15.77-207.56,10.45-175.09,21.25-356.14,65.17-402.67a5.72,5.72,0,1,1,8.32,7.84c-41.08,43.52-52.24,230.52-62.08,395.5-4.58,76.76-8.91,149.26-15.83,208.22A5.71,5.71,0,0,1,1300.51,1482.65Z"/><path fill="#571519" d="M716,1826.78a6.3,6.3,0,0,1-.75,0,5.72,5.72,0,0,1-4.92-6.41c3.21-24.27,6.43-84,9.56-177.65a5.53,5.53,0,0,1,5.9-5.52,5.71,5.71,0,0,1,5.52,5.9c-3.15,94-6.39,154.13-9.65,178.76A5.71,5.71,0,0,1,716,1826.78Z"/><path fill="#571519" d="M735.77,1158.72h-.06a5.7,5.7,0,0,1-5.65-5.78c.45-39.41,1.68-79.06,2.77-114,1.43-46.05,2.9-93.65.7-100.9a5.71,5.71,0,0,1,8.73-7.28c4.56,4.46,4.81,17.65,2,108.54-1.09,34.93-2.31,74.52-2.77,113.83A5.7,5.7,0,0,1,735.77,1158.72Zm-1.5-219.85h0Z"/><path fill="#571519" d="M1433.39,1828a5.72,5.72,0,0,1-5.65-4.89c-6.43-44.11-10.12-104.55-10.12-165.81a5.71,5.71,0,0,1,11.42,0c0,60.73,3.65,120.57,10,164.16a5.71,5.71,0,0,1-4.83,6.48A5.9,5.9,0,0,1,1433.39,1828Z"/><path fill="#571519" d="M1000.41,881a5.72,5.72,0,0,1-.67-11.39c114-13.78,211.65-147.22,211.65-185.16a5.72,5.72,0,0,1,11.43,0c0,41.58-99.76,181.76-221.71,196.5A5.62,5.62,0,0,1,1000.41,881Z"/><path fill="#571519" d="M888.43,495a5.8,5.8,0,0,1-1.68-.25c-9.91-3.05-16.07-12-16.07-23.28a5.71,5.71,0,0,1,11.42,0c0,6.2,3,10.82,8,12.36A5.71,5.71,0,0,1,888.43,495Z"/><path fill="#571519" d="M920.18,664.86a5.66,5.66,0,0,1-3.16-1c-11.59-7.72-27.92-13-44.82-14.38a5.71,5.71,0,0,1,1-11.38c18.76,1.57,37.05,7.49,50.19,16.25a5.71,5.71,0,0,1-3.17,10.47Z"/><path fill="#571519" d="M821.67,370.18c-51.28,0-92-8.32-112.09-24.34-9-7.22-13.83-15.78-14.24-25.45-.38-8.77,2.91-18.25,9.77-28.18a5.71,5.71,0,0,1,9.4,6.5c-5.42,7.83-8,15-7.76,21.19s3.62,12,10,17c30,24,117.31,28.72,212.27,11.5,132.1-24,219.29-76.2,217.84-109.94-.3-7-4.48-13.8-12.42-20.08a5.72,5.72,0,0,1,7.1-9c10.65,8.44,16.29,18,16.74,28.55,1.92,44.76-97.89,98.2-227.22,121.67C892.05,366.73,854.68,370.18,821.67,370.18Z"/><path fill="#571519" d="M1100.68,201.84a5.49,5.49,0,0,1-1.64-.25c-36.9-11.09-88.73-13.91-142.19-7.73a5.71,5.71,0,1,1-1.31-11.35c55.75-6.45,107.88-3.55,146.78,8.14a5.72,5.72,0,0,1-1.64,11.19Z"/><path fill="#571519" d="M722.64,286.26a5.71,5.71,0,0,1-4-9.8,176,176,0,0,1,14.88-12.91,5.71,5.71,0,1,1,7,9,165.15,165.15,0,0,0-13.92,12.07A5.74,5.74,0,0,1,722.64,286.26Z"/><path fill="#571519" d="M999.39,320.93a5.5,5.5,0,0,1-1-.09L880.84,300.38a5.72,5.72,0,0,1-2.91-9.81l51.54-48a5.71,5.71,0,1,1,7.79,8.36L894.13,291.1l103.63,18,122-102.07-75.7-13.63a5.72,5.72,0,1,1,2-11.25L1133.8,198a5.71,5.71,0,0,1,2.65,10L1003.06,319.6A5.77,5.77,0,0,1,999.39,320.93Z"/><path fill="#571519" d="M934.73,305.3h-.15a5.71,5.71,0,0,1-5.56-5.85l1.35-54.32a5.71,5.71,0,1,1,11.42.28l-1.35,54.32A5.71,5.71,0,0,1,934.73,305.3Z"/><path fill="#571519" d="M881.82,323.91a5.71,5.71,0,0,1-5.63-4.79l-3.62-21.95a5.71,5.71,0,0,1,11.27-1.86l3.62,21.95a5.71,5.71,0,0,1-4.71,6.57A5.84,5.84,0,0,1,881.82,323.91Z"/><path fill="#571519" d="M1003.47,338a5.71,5.71,0,0,1-5.64-4.86l-2.28-15.19a5.71,5.71,0,1,1,11.3-1.7l2.28,15.19a5.71,5.71,0,0,1-4.8,6.5A6.33,6.33,0,0,1,1003.47,338Z"/><path fill="#571519" d="M1136.4,270.33a5.7,5.7,0,0,1-5.7-5.5l-2.26-60.27a5.71,5.71,0,0,1,11.41-.43l2.26,60.27a5.71,5.71,0,0,1-5.49,5.93Z"/><path fill="#571519" d="M970.76,346.65a5.71,5.71,0,0,1-1.23-.13l-254-56A5.71,5.71,0,0,1,718,279.35l254,56a5.71,5.71,0,0,1-1.23,11.29Z"/><path fill="#571519" d="M813.4,308.07A5.71,5.71,0,0,1,810,297.78L897.05,233a5.71,5.71,0,0,1,9.12,4.38l1,29.15a5.71,5.71,0,0,1-11.42.39l-.62-18.25L816.8,306.94A5.62,5.62,0,0,1,813.4,308.07Z"/><path fill="#571519" d="M984.87,293.09a5.81,5.81,0,0,1-1.24-.13l-38.06-8.45a5.71,5.71,0,0,1-2.46-9.93l48.21-40.8-94.81-13.43-84.59,56.26a5.65,5.65,0,0,1-4.68.75L741,259.12a5.72,5.72,0,0,1-1.72-10.22l88.38-60.74a5.71,5.71,0,1,1,6.47,9.42l-78.26,53.78,51.85,14.3,84.24-56a5.73,5.73,0,0,1,4-.9l109.57,15.53a5.71,5.71,0,0,1,2.89,10l-49.13,41.59,24.12,5.35,75-60.91a5.72,5.72,0,0,1,9.19,3.25l6,28a5.71,5.71,0,1,1-11.17,2.38l-4-18.92-69.88,56.76A5.73,5.73,0,0,1,984.87,293.09Z"/><path fill="#571519" d="M987.84,315.43a5.72,5.72,0,0,1-5.7-5.5l-.66-17.43a5.71,5.71,0,0,1,11.41-.43l.67,17.43a5.71,5.71,0,0,1-5.49,5.92Z"/><path fill="#571519" d="M1009.69,265.86a5.72,5.72,0,0,1-5.62-4.73l-4.64-26.42a5.71,5.71,0,0,1,11.25-2l4.64,26.42a5.72,5.72,0,0,1-5.63,6.7Z"/><path fill="#571519" d="M834.24,220.37a5.72,5.72,0,0,1-5.63-4.79l-3.31-20.15a5.72,5.72,0,0,1,11.28-1.85l3.31,20.15a5.72,5.72,0,0,1-4.71,6.57A6,6,0,0,1,834.24,220.37Z"/><path fill="#571519" d="M809.76,275.66a5.7,5.7,0,0,1-5.11-3.14l-11.92-23.7a5.72,5.72,0,0,1,1.89-7.29l95-64.82a5.73,5.73,0,0,1,4.28-.89l144.33,27.23a5.72,5.72,0,0,1,4.64,6l-2.32,32.14a5.71,5.71,0,0,1-11.39-.82l1.95-27.06-137-25.86-88.92,60.67,9.66,19.23a5.7,5.7,0,0,1-2.53,7.67A5.63,5.63,0,0,1,809.76,275.66Z"/><path fill="#571519" d="M895.15,218.74a5.71,5.71,0,0,1-5.67-5.13l-3-29.15a5.71,5.71,0,1,1,11.36-1.16l3,29.14a5.72,5.72,0,0,1-5.1,6.27A5.83,5.83,0,0,1,895.15,218.74Z"/><path fill="#571519" d="M716.73,314.07a5.73,5.73,0,0,1-5.6-4.61L706.5,286a5.71,5.71,0,1,1,11.2-2.22l4.64,23.43a5.71,5.71,0,0,1-4.5,6.71A6.05,6.05,0,0,1,716.73,314.07Z"/><path fill="#571519" d="M760.09,363.37A5.71,5.71,0,0,1,754.4,358l-2-32.22L703.49,315A5.71,5.71,0,0,1,706,303.81l53,11.77a5.71,5.71,0,0,1,4.46,5.22l2.32,36.49a5.72,5.72,0,0,1-5.34,6.07Z"/><path fill="#571519" d="M784.27,364.46A5.72,5.72,0,0,1,781.05,354l62.57-42.49A5.71,5.71,0,0,1,850,321l-62.57,42.49A5.66,5.66,0,0,1,784.27,364.46Z"/><path fill="#571519" d="M882.26,365.54a5.71,5.71,0,0,1-3-10.57l41.38-25.6a5.71,5.71,0,0,1,6,9.72l-41.37,25.6A5.7,5.7,0,0,1,882.26,365.54Z"/><path fill="#571519" d="M929.91,358.74a5.71,5.71,0,0,1-5.65-4.94l-2.32-16.89a5.71,5.71,0,0,1,11.32-1.55l2.32,16.88a5.72,5.72,0,0,1-4.88,6.44A5.35,5.35,0,0,1,929.91,358.74Z"/><path fill="#571519" d="M851.13,366.09a5.72,5.72,0,0,1-5.71-5.62l-.66-39.76a5.71,5.71,0,0,1,5.61-5.81,5.65,5.65,0,0,1,5.81,5.62l.67,39.76a5.72,5.72,0,0,1-5.62,5.81Z"/><path fill="#571519" d="M745,290.57a5.7,5.7,0,0,1-5.69-5.27l-2.4-31.06a5.71,5.71,0,1,1,11.39-.88l2.4,31.06a5.71,5.71,0,0,1-5.26,6.13A3.17,3.17,0,0,1,745,290.57Z"/></g></svg>