<svg xmlns="http://www.w3.org/2000/svg" enable-background="new 0 0 2000 2000" viewBox="0 0 2000 2000"><path fill="#ede4f1" fill-rule="evenodd" d="M1008.99,359.3c-189.19,0-167.59,275.64-304.17,359.67c-180.78,111.21-491.78,56.15-491.78,247
		c0,335.06,356.36,658.68,795.95,658.68c439.59,0,730.82-387.18,730.82-722.23C1739.82,567.35,1448.58,359.3,1008.99,359.3z" clip-rule="evenodd"/><path fill="#2b2870" fill-rule="evenodd" d="M995.11,290.45c-71.64,0-129.72,58.09-129.72,129.72c0,71.64,58.08,129.73,129.72,129.73
		c71.64,0,129.72-58.09,129.72-129.73C1124.83,348.53,1066.75,290.45,995.11,290.45z" clip-rule="evenodd"/><path fill="#d7cce5" fill-rule="evenodd" d="M995.11,303.87c-64.23,0-116.3,52.07-116.3,116.3c0,64.23,52.07,116.29,116.3,116.29
		c64.24,0,116.3-52.07,116.3-116.29C1111.42,355.94,1059.35,303.87,995.11,303.87z" clip-rule="evenodd"/><path fill="#f9b08c" fill-rule="evenodd" d="M1028.23,448.97c-2.64-2.24-4.27-9.84-4.46-16.57c0.33-2.49,0.56-5.63,0.69-9.36
		c12.98-13.55,13.42-21.6,1.34-24.2c-1.95,1.71-3.89,6.14-5.82,13.27c-2.65,0.46-4.93-0.46-6.85-2.75
		c0.82-11.53,0.98-20.78,0.49-27.74c-9.85-9.53-27.68-7.39-50.2,0.55c0.24,6.4,0.75,13.1,1.54,20.15
		c-3.29,4.65,0.22,18.51,7.42,33.83c0.07,9.56,6.8,13.35,20.18,11.38l-1.06,3.36c-4.18,0.59-8.42,1.28-12.72,2.06
		c-22.2,44.99,20.38,63.25,61.15-1.76C1036.71,450.62,1032.81,449.89,1028.23,448.97z" clip-rule="evenodd"/><path fill="#071023" fill-rule="evenodd" d="M960.68,392.59c20.16-1.05,34.93-17.75,53.24-2.33c0.49,6.97,0.05,7.56-0.77,19.09
		c1.91,2.29,4.19,3.21,6.85,2.76c1.92-7.14,3.86-11.57,5.82-13.28c12.08,2.6,11.64,10.65-1.34,24.2c-0.13,3.74-0.36,6.87-0.69,9.36
		c0.2,6.73,1.82,14.33,4.46,16.57c4.57,0.92,8.48,1.65,11.7,2.21c5.5,1.22,10.73,2.66,15.6,4.31c11.98,4.06,21.79,9.44,28.14,16.11
		c1.79,5.54,3.47,11.4,5.05,17.59c4.34-5.88,8.14-12.18,11.33-18.82c-7.45-15.34-33.83-13.68-35.66-43.97
		c-3.6-59.74-28.32-66.38-40.2-67.3c-14.25-13.17-52.17-22.83-68.7-5.53C940.82,368.91,945.13,391.84,960.68,392.59L960.68,392.59z
		 M964.03,411.47c0.94,6.5,3.97,15.32,8.37,24.66c0.06,9.57,6.79,13.37,20.16,11.39l-1.05,3.36c-4.18,0.59-8.42,1.28-12.72,2.06
		c-10.41,1.84-16.16,5.26-17.93,7.66c-3.61,1.95-6.68,3.82-9.31,5.64c0.8-5,3.07-9.83,5.88-14.48c6.69-11-11.11-3.3-3.3-20.45
		C958.61,421.48,961.1,417.56,964.03,411.47z" clip-rule="evenodd"/><path fill="#9488c0" fill-rule="evenodd" d="M1039.94,451.18c-40.77,65.01-83.35,46.75-61.15,1.76c-11.68,2.06-17.49,6.13-18.41,8.49
		c-24.97,27.23-22.22,45.06-15.07,63.85c15.1,7.16,31.98,11.18,49.81,11.18c20.1,0,39-5.1,55.49-14.06
		c-7.57-13.9-5.17-64.7,4.92-66.91C1050.66,453.84,1045.43,452.4,1039.94,451.18z" clip-rule="evenodd"/><path fill="#f9b08c" fill-rule="evenodd" d="M1088.73,489.19c-1.58-6.18-3.27-12.04-5.06-17.59c-6.34-6.68-16.16-12.05-28.14-16.11
		c-10.09,2.21-12.5,53.02-4.92,66.91C1065.62,514.24,1078.63,502.85,1088.73,489.19z" clip-rule="evenodd"/><path fill="#f9b08c" fill-rule="evenodd" d="M945.3,525.29c-7.15-18.79-9.9-36.62,15.07-63.85c0.1-0.26,0.26-0.54,0.47-0.82
		c-17.32,9.38-22.38,16.88-24.79,25.19c-2.79,9.59-5.08,19.63-7.01,30.09C934.19,519.44,939.62,522.58,945.3,525.29z" clip-rule="evenodd"/><path fill="#ed7d57" fill-rule="evenodd" d="M989.75,456.25l0.7-2.14c3.82-2.16,10.82-6.63,20.99-13.44c-5.8,3.15-12.1,5.44-18.88,6.86l-1.05,3.36
		c-2.11,0.3-4.23,0.62-6.37,0.97C987.37,452.91,988.91,454.37,989.75,456.25z" clip-rule="evenodd"/><path fill="#6251a1" fill-rule="evenodd" d="M1044,525.72c2.25-1.04,4.45-2.14,6.61-3.32c-4.68-8.6-5.55-31.34-3.13-47.94
		C1044.4,494.62,1043.24,511.71,1044,525.72z" clip-rule="evenodd"/><path fill="#fff" fill-rule="evenodd" d="M1186.79,1525.99c-8.01,2.28-12.65,10.63-10.37,18.64c2.28,8,10.63,12.65,18.64,10.37
		c164.07-46.94,283.6-138.44,358.55-274.51c4-7.28,1.34-16.43-5.94-20.43c-7.28-4-16.43-1.33-20.42,5.94
		C1456.36,1394.67,1342.87,1481.33,1186.79,1525.99L1186.79,1525.99z M1250.26,1442.33c37.53-20.1,71.91-41.12,102.55-64.05
		c30.33-22.72,56.98-47.31,79.35-74.78c5.24-6.45,14.72-7.42,21.17-2.17c6.44,5.24,7.41,14.72,2.17,21.17
		c-24.03,29.49-52.43,55.75-84.63,79.86c-31.9,23.88-67.57,45.69-106.42,66.5c-7.33,3.9-16.45,1.14-20.36-6.18
		C1240.17,1455.36,1242.93,1446.24,1250.26,1442.33z" clip-rule="evenodd"/><path fill="#ede4f1" fill-rule="evenodd" d="M730.56,583.62c2.93-7.64,11.52-11.47,19.17-8.54c7.65,2.94,11.47,11.52,8.54,19.17
		c-14.78,38.6-38.85,70.35-72.19,95.23c-32.77,24.45-74.36,42.09-124.76,52.9c-7.99,1.75-15.88-3.33-17.63-11.31
		c-1.75-7.99,3.33-15.89,11.32-17.63c46.23-9.92,84-25.83,113.33-47.7C697.05,644.31,717.8,616.93,730.56,583.62L730.56,583.62z
		 M664.77,581.63c-7.53,17.34-18.18,31.04-31.95,41.09c-13.98,10.19-31.41,16.83-52.28,19.93c-8.1,1.21-13.7,8.75-12.5,16.84
		c1.2,8.1,8.74,13.69,16.84,12.5c25.68-3.81,47.49-12.24,65.39-25.29c18.11-13.21,32-30.96,41.67-53.22
		c3.27-7.51-0.17-16.25-7.67-19.51C676.77,570.69,668.03,574.13,664.77,581.63z" clip-rule="evenodd"/><path fill="#2b2870" fill-rule="evenodd" d="M1557.55,519.11c-71.64,0-129.72,58.09-129.72,129.73s58.07,129.72,129.72,129.72
		c71.64,0,129.72-58.08,129.72-129.72S1629.2,519.11,1557.55,519.11z" clip-rule="evenodd"/><path fill="#d7cce5" fill-rule="evenodd" d="M1557.55,532.53c-64.24,0-116.3,52.07-116.3,116.3s52.07,116.3,116.3,116.3c64.23,0,116.3-52.07,116.3-116.3
		S1621.78,532.53,1557.55,532.53z" clip-rule="evenodd"/><path fill="#9488c0" fill-rule="evenodd" d="M1581.91,665.99c6.69,3.85,8.75,10.19,13.27,12.54c13.15,1.25,26.1,2.26,32.28,6.53
		c8.95,10.83,17.27,21.19,24.95,31.08c-8.11,11.41-18.23,21.3-29.84,29.14c-3.91-4.06-7.55-8.01-10.9-11.84
		c0.68,5.46,0.48,11.68-0.59,18.67c-16.02,8.32-34.22,13.03-53.53,13.03c-31.99,0-60.96-12.93-81.99-33.82
		c14.16-19.61,26.76-36.06,37.78-49.36c11.33-2.64,19.78-4.02,25.35-4.13c2.39-2.82,5.92-5.23,10.61-7.24
		c-2.74,15.03-3.77,33.05-3.63,45.78C1567.16,700.64,1579.23,680.08,1581.91,665.99z" clip-rule="evenodd"/><path fill="#38308d" fill-rule="evenodd" d="M1538.7,677.83c-2.52,7.41-3.87,13.53-4.04,18.36c2.89-2.3,5.03-3.86,6.4-4.72c1.06,11.9,2.6,20.2,4.62,24.9
		c-0.14-12.73,0.89-30.75,3.63-45.78C1544.62,672.59,1541.09,675,1538.7,677.83z" clip-rule="evenodd"/><path fill="#38308d" fill-rule="evenodd" d="M1581.91,665.99c-2.68,14.09-14.75,34.65-36.22,50.38c12.83-4.55,26.86-15.7,34.89-30.53
		c1.33,5.02,3.01,10.88,5.04,17.6c5.59-6.92,8.77-15.22,9.56-24.91C1590.65,676.18,1588.6,669.84,1581.91,665.99z" clip-rule="evenodd"/><path fill="#fab688" fill-rule="evenodd" d="M1548.98,661.79c1.38,5.18,1.24,9.59-0.42,13.23c-2.17,14.04-3,29.86-2.87,41.35
		c20.5-15.02,32.43-34.42,35.8-48.42c-2.72-4.37-3.83-9.49-3.34-15.33c-0.5-2.73,1.05-7.82,4.66-15.27
		c12.27-2.12,15.31-12.42,10.21-20.59c-5.73-2.03-8.83,2.66-10.34,11.16c-3.27-0.48-2.01-5.71-1.68-8.15
		c1.53-7.08,0.25-10.89-2.33-17.6c-14.73,10.36-27.36,10.68-47.47,4.84c0.59,4.83,1.01,9.48,1.29,13.97
		C1526.98,634.4,1535.41,657.24,1548.98,661.79z" clip-rule="evenodd"/><path fill="#071023" fill-rule="evenodd" d="M1531.2,607.01c20.11,5.84,32.74,5.52,47.47-4.84c2.58,6.71,3.86,10.52,2.33,17.6
		c-0.33,2.44-1.59,7.66,1.68,8.15c1.51-8.5,4.6-13.19,10.34-11.16c5.1,8.17,2.06,18.47-10.21,20.59
		c-3.61,7.45-5.16,12.54-4.66,15.27c-0.49,5.84,0.62,10.96,3.34,15.33c0.15-0.67,0.3-1.32,0.42-1.96
		c6.69,3.85,8.75,10.19,13.27,12.54c13.15,1.25,26.1,2.26,32.28,6.53c1.78,2.15,3.54,4.3,5.27,6.41c4.2-9.85,6.41-17.09,5.67-20.29
		c-2.83-12.22-15.7-6.09-15.48-13.32c0.34-11.27-15.57-20.1-13.45-31.35c4.33-23.01-4.65-29.98-4.71-31.73
		c-0.53-17.43-10.96-17.87-21.34-23.76c-18.43-10.44-34.44,2.33-39.67,2.67c-26.62,1.74-11.87,13.19-23.8,23.5
		c-9.82,8.5-5.17,14.94-4.16,20.04c0.45,2.31,2.59,11.78-4.2,16.57c-9.96,7.02-0.86,21.76-6.73,23.54
		c-22.62,6.86-12.42,13.69-11.81,29.51c0.2,5.06,2.58,9.59,5.76,13.3c5.12-6.59,9.96-12.66,14.54-18.18
		c11.33-2.64,19.78-4.02,25.35-4.13c2.39-2.82,5.92-5.23,10.61-7.24c-0.27,1.45-0.52,2.93-0.75,4.43c1.66-3.64,1.8-8.05,0.42-13.23
		c-13.57-4.54-22-27.38-16.49-40.81C1532.21,616.49,1531.79,611.84,1531.2,607.01z" clip-rule="evenodd"/><path fill="#ed7d57" fill-rule="evenodd" d="M1548.98,661.79c8.22,0.93,11.95,0.88,19.55-2.15c-4.46,4.81-10.66,7.45-18.63,7.91
		C1549.83,665.74,1549.53,663.83,1548.98,661.79z" clip-rule="evenodd"/><path fill="#2b2870" fill-rule="evenodd" d="M1657.24,796.76c-71.64,0-129.72,58.07-129.72,129.72c0,71.64,58.08,129.73,129.72,129.73
		c71.64,0,129.72-58.09,129.72-129.73C1786.96,854.83,1728.88,796.76,1657.24,796.76z" clip-rule="evenodd"/><path fill="#d7cce5" fill-rule="evenodd" d="M1657.24,810.18c-64.24,0-116.3,52.07-116.3,116.29c0,64.24,52.07,116.3,116.3,116.3
		c64.23,0,116.3-52.07,116.3-116.3C1773.54,862.25,1721.47,810.18,1657.24,810.18z" clip-rule="evenodd"/><path fill="#c6bcdd" fill-rule="evenodd" d="M1655.77,1027.36c12.1,2.76,22.71,6.57,31.82,11.41c-9.68,2.61-19.85,4.01-30.35,4.01
		c-26.48,0-50.88-8.85-70.44-23.76C1613.2,1020.53,1636.18,1023.3,1655.77,1027.36z" clip-rule="evenodd"/><path fill="#6251a1" fill-rule="evenodd" d="M1702.91,1033.47c0.66-9.8,1.53-19.05,2.6-27.75c-2.05,10.56-3.84,20.19-5.38,28.9
		C1701.07,1034.24,1702,1033.86,1702.91,1033.47z" clip-rule="evenodd"/><path fill="#9488c0" fill-rule="evenodd" d="M1605.29,1030.56c2.01-16.9,5.23-36.02,11.78-57.8c-8.82,4.44-18.61,20.09-29.36,46.96
		C1593.22,1023.83,1599.1,1027.46,1605.29,1030.56z" clip-rule="evenodd"/><path fill="#9488c0" fill-rule="evenodd" d="M1617.07,972.77c-6.54,21.78-9.77,40.91-11.78,57.8c15.64,7.82,33.28,12.22,51.95,12.22
		c15.15,0,29.62-2.89,42.9-8.17c1.54-8.71,3.33-18.34,5.38-28.9c-1.07,8.71-1.94,17.96-2.6,27.75c15.15-6.48,28.65-16.08,39.68-28
		c-1.46-10-3.6-20.39-6.42-31.18c-7.74-9.87-25.01-13.55-51.83-11.03c-27.96,23.59-40.76,24.74-38.38,3.4
		C1633.76,966.99,1624.13,969.03,1617.07,972.77z" clip-rule="evenodd"/><path fill="#6251a1" fill-rule="evenodd" d="M1616.21,973.23c-7,14.52-11.55,35.36-15.06,55.16c1.36,0.75,2.75,1.47,4.14,2.17
		c2.01-16.9,5.23-36.02,11.78-57.8C1616.79,972.91,1616.5,973.06,1616.21,973.23z" clip-rule="evenodd"/><path fill="#fab688" fill-rule="evenodd" d="M1674.06,921.19c-2.75-11.34-3.27-24.24-7-29.23c-30.25-10.64-33.63,6.1-46.97,9.29
		c-0.14,4.14,1.13,8.79,3.8,13.93c-1.01,18.32,3.3,29.65,12.92,33.96c2.43,2.57,6.43,4.07,12,4.51c-0.54,2.34-2.16,10.83-2.85,13
		l0,0c-2.38,21.34,10.42,20.19,38.38-3.4l0.12-0.02c-0.17-7.5-0.8-13.26-0.68-18.92c0.09-3.85,0.24-7.27,0.46-10.26
		c10.01-10.44,12-18.88,5.94-25.36c-7.93-3.75-12.53,1.58-13.79,15.99C1674.03,923.77,1675.67,924.55,1674.06,921.19z" clip-rule="evenodd"/><path fill="#071023" fill-rule="evenodd" d="M1620.09,901.26c13.34-3.19,16.72-19.94,46.97-9.29c3.73,4.99,4.26,17.88,7.01,29.23
		c1.61,3.36-0.04,2.58,2.33,3.49c1.27-14.41,5.86-19.74,13.79-15.99c6.06,6.48,4.07,14.93-5.94,25.36
		c-0.22,2.99-0.37,6.41-0.46,10.26c28.18-25.97,22.48-61.23,5.32-72.83c4.18,0.44,8.44,2.06,12.78,4.86
		c-6.25-8.38-14.67-11.28-25.24-8.73c1.14-5.92,0.93-10.29-0.65-13.14c-0.48,4.01-1.28,7.1-2.4,9.28
		c-6.79-6.2-19.83-7.64-33.18-2.63c-17.28,6.5-35.14,22.39-41.93,17.66C1599.5,895.11,1608.76,905.01,1620.09,901.26z" clip-rule="evenodd"/><path fill="#ed7d57" fill-rule="evenodd" d="M1666.62,948.52c-5.02,3.23-10.96,4.95-17.81,5.13c-0.3,1.3-0.93,4.49-1.56,7.46
		C1655.91,958.79,1662.37,954.59,1666.62,948.52z" clip-rule="evenodd"/><polygon fill="#9488c0" fill-rule="evenodd" points="1415.98 798.08 1356.26 857.57 1371.74 862.1 1347.64 894.43 1363.27 899.6 1324.94 950.71 1384.67 891.2 1369.19 886.69 1393.29 854.35 1377.66 849.19" clip-rule="evenodd"/><polygon fill="#9488c0" fill-rule="evenodd" points="1068.73 604.14 1009.01 663.64 1024.49 668.15 1000.39 700.49 1016.02 705.66 977.7 756.78 1037.42 697.27 1021.94 692.76 1046.04 660.42 1030.41 655.26" clip-rule="evenodd"/><polygon fill="#9488c0" fill-rule="evenodd" points="1487.78 840.87 1428.06 900.38 1443.54 904.89 1419.44 937.23 1435.07 942.39 1396.75 993.52 1456.47 934.01 1440.99 929.5 1465.09 897.16 1449.46 891.99" clip-rule="evenodd"/><polygon fill="#9488c0" fill-rule="evenodd" points="1140.53 646.94 1080.81 706.45 1096.29 710.96 1072.19 743.3 1087.82 748.46 1049.5 799.58 1109.22 740.08 1093.74 735.56 1117.84 703.22 1102.21 698.06" clip-rule="evenodd"/><polygon fill="#9488c0" fill-rule="evenodd" points="1350.06 765.56 1290.34 825.07 1305.82 829.58 1281.72 861.92 1297.35 867.08 1259.03 918.19 1318.75 858.7 1303.27 854.18 1327.37 821.85 1311.74 816.67" clip-rule="evenodd"/><polygon fill="#9488c0" fill-rule="evenodd" points="1002.82 571.63 943.09 631.14 958.57 635.65 934.47 667.99 950.11 673.15 911.78 724.26 971.5 664.76 956.02 660.25 980.12 627.91 964.49 622.74" clip-rule="evenodd"/><path fill="#2b2870" fill-rule="evenodd" d="M1299.38,362.06c71.64,0,129.72,58.08,129.72,129.72s-58.08,129.72-129.72,129.72
		c-71.64,0-129.72-58.08-129.72-129.72S1227.74,362.06,1299.38,362.06z" clip-rule="evenodd"/><path fill="#d7cce5" fill-rule="evenodd" d="M1299.38,375.48c64.23,0,116.3,52.07,116.3,116.29c0,64.24-52.07,116.3-116.3,116.3
		c-64.24,0-116.3-52.07-116.3-116.3C1183.08,427.55,1235.15,375.48,1299.38,375.48z" clip-rule="evenodd"/><path fill="#fab688" fill-rule="evenodd" d="M1346.29,518.22c-4.07,0.3-10.49-0.48-11.63-1.93c-4.33-5.5-7.33-11.24-8.44-14.86
		c0.84-2.41,1.73-5.45,2.65-9.12c15.69-10.65,17.83-18.53,6.43-23.65c-2.3,1.29-5.15,5.25-8.56,11.91c-2.71-0.11-4.78-1.5-6.18-4.17
		c3.24-11.22,5.35-20.33,6.32-27.33c-7.73-11.49-25.81-13.14-49.75-10.03c-1.11,6.38-2.02,13.12-2.73,20.24
		c-4.23,3.9-3.69,18.36,0.22,35.02c-1.95,9.48,3.9,14.65,17.55,15.51c0.2,3.37-0.11,7.48-0.33,7.95c-0.34,0.72-1.56,1.42-3.23,2.03
		h0C1288.14,535.42,1307.37,534.9,1346.29,518.22z" clip-rule="evenodd"/><path fill="#071023" fill-rule="evenodd" d="M1277.14,439.04c23.94-3.1,42.02-1.45,49.75,10.03c-0.97,7-3.08,16.11-6.32,27.33
		c1.4,2.67,3.46,4.06,6.19,4.17c3.4-6.66,6.25-10.62,8.55-11.91c11.4,5.12,9.26,13-6.43,23.65c-0.92,3.67-1.8,6.71-2.65,9.12
		c14.11-3.16,25.92-15.78,27.58-21.24c16.46-32.45-1.9-46.15-11.72-51.15c-4.34-32.13-51-3.73-74.38-19.22
		C1258.41,422.66,1269.9,438.75,1277.14,439.04z" clip-rule="evenodd"/><path fill="#9488c0" fill-rule="evenodd" d="M1394.86,558.2c-1.21-3.84-2.46-7.56-3.76-11.14c-6.36-9.78-21.29-19.39-44.81-28.84
		c-38.92,16.68-58.15,17.19-57.69,1.57c-11.44,3.75-26.63,10.41-45.55,19.95c-8.44,6.41-16.21,18.68-23.3,36.8
		c20.81,19.55,48.82,31.55,79.63,31.55C1338.92,608.08,1373.84,588.35,1394.86,558.2z" clip-rule="evenodd"/><polygon fill="#c8252c" fill-rule="evenodd" points="1232.41 586.87 1233.04 583.6 1232.27 586.77" clip-rule="evenodd"/><path fill="#ed7d57" fill-rule="evenodd" d="M1307.9,506.51c-3.83,1.89-9.07,2.99-15.73,3.3c0.13,2.26,0.03,4.85-0.11,6.46
		C1298.76,514.98,1304.04,511.73,1307.9,506.51z" clip-rule="evenodd"/><path fill="#9488c0" fill-rule="evenodd" d="M944.17,954.55l-126.09-72.99L752.1,995.53c-74.99,129.53-30.36,296.87,99.19,371.87
		c129.54,74.99,296.88,30.36,371.87-99.18l65.97-113.97l-126.09-72.99l-65.97,113.97c-34.85,60.2-112.61,80.94-172.8,46.08
		c-60.19-34.84-80.93-112.6-46.09-172.79L944.17,954.55z" clip-rule="evenodd"/><path fill="#ccced0" fill-rule="evenodd" d="M818.07,881.56l126.09,72.99L1025.53,814L899.44,741L818.07,881.56L818.07,881.56z M1244.41,940.7
		l-81.37,140.56l126.09,72.99l81.37-140.57L1244.41,940.7z" clip-rule="evenodd"/><path fill="#6251a1" fill-rule="evenodd" d="M1025.53,814l-81.37,140.56l-65.98,113.97c-23.64,40.85-21.7,89.78,0.8,127.9
		c-1.59-24.14,3.68-48.97,16.64-71.35l145.85-251.95L1025.53,814z" clip-rule="evenodd"/><path fill="#6251a1" fill-rule="evenodd" d="M1223.16,1268.22c-74.99,129.54-242.33,174.17-371.87,99.18c-52.31-30.28-90.77-75.62-113.11-127.44
		c14.51,74.72,59.9,143.09,130.55,183.99c129.54,74.99,296.89,30.35,371.87-99.18l145.85-251.95l-15.95-59.14l-81.37,140.57
		L1223.16,1268.22z" clip-rule="evenodd"/><polygon fill="#a9abb1" fill-rule="evenodd" points="1289.13 1154.25 1370.5 1013.69 1386.45 1072.82 1305.09 1213.38" clip-rule="evenodd"/><polygon fill="#a9abb1" fill-rule="evenodd" points="1041.48 873.12 960.11 1013.68 944.17 954.55 1025.53 814" clip-rule="evenodd"/><path fill="#d1c6e2" fill-rule="evenodd" d="M637.3,1599.1c232.35,0,420.72,24.73,420.72,55.23c0,30.49-188.36,55.22-420.72,55.22
		s-420.72-24.73-420.72-55.22C216.58,1623.83,404.95,1599.1,637.3,1599.1z" clip-rule="evenodd"/><path fill="#071023" fill-rule="evenodd" d="M828.47,1639.11c-41.71-0.67-72.89-1.17-87.29-5.72c-15.54-4.9-12.32-14.38-3.39-29.55
		c39.31,18.08,28.83-3.72,47.22-0.95c12.92,10.41,32.06,17.37,57.39,20.91C853.12,1631.71,848.77,1638.76,828.47,1639.11z" clip-rule="evenodd"/><path fill="#ccced0" fill-rule="evenodd" d="M774.89,1003.57H517.17c-5.08,0-10.32,4.16-11.66,9.24l-45.85,174.61c-1.33,5.08,1.73,9.23,6.81,9.23h257.72
		c5.08,0,10.33-4.15,11.66-9.23l45.85-174.61C783.04,1007.73,779.97,1003.57,774.89,1003.57z" clip-rule="evenodd"/><path fill="#9488c0" fill-rule="evenodd" d="M500.01,1008.61l-31.13,118.54c-37.39-18.24-82.42-47.51-129.66-85.07c-1.27-16.91-2.84-30.38-4.72-40.44
		c3.79-7.52,7.94-15.55,12.46-24.1c-43.59-0.28-70.17-9.65-79.75-28.13c11.66-34.12,27.96-68.95,48.9-104.52
		c14.65-21.66,43.33-34.39,86.05-38.19c4.99,57.28,92.86,54.35,72.19,5.04c31.88,8.55,58.89,24.37,81.02,47.43
		c19.04,46.91,30.65,79.65,34.84,98.22c-20.68,14.47-40.26,23.85-58.76,28.11c-0.84,4.07-1.51,8.69-1.99,13.86h-17.79
		C506.59,999.38,501.34,1003.53,500.01,1008.61z" clip-rule="evenodd"/><path fill="#85868b" fill-rule="evenodd" d="M468.87,1127.15l31.13-118.54c1.33-5.08,6.57-9.23,11.65-9.23h17.79h239.93c5.08,0,14.13,6.55,12.62,11.59
		c0.24-4.21-2.66-7.4-7.11-7.4H517.17c-5.08,0-10.32,4.16-11.66,9.24l-45.85,174.61c-0.8,3.05-0.02,5.76,1.83,7.45
		c-4.24-2.74-8.29-8.05-7.34-11.64L468.87,1127.15z" clip-rule="evenodd"/><path fill="#85868b" fill-rule="evenodd" d="M466.47,1196.65h257.72c0.95,0,1.9-0.14,2.83-0.41c-5.13,13.3-19.07,11.33-24.51,11.29H396.96
		c-16.56-0.7-16.13-12.31-16.34-23.51h73.41c-0.24,3.55,3.53,8.3,7.47,10.85C462.73,1195.99,464.44,1196.65,466.47,1196.65z" clip-rule="evenodd"/><path fill="#a9abb1" fill-rule="evenodd" d="M502.54,1075.38c27.63,13.97,60.31,18.27,93.91,19.99c-0.37,1.21-0.66,2.44-0.86,3.71
		c-2.24,14.16,7.74,26.21,22.17,26.21c13.58,0,25.91-10.76,28.02-24.13c0.23-1.45,0.33-2.88,0.31-4.28
		c34.89,0.94,68.59,2.85,96.47,13.75l-19.17,73H474.11L502.54,1075.38z" clip-rule="evenodd"/><path fill="#8d8f94" fill-rule="evenodd" d="M623.33,1083.38c-9.23,0-17.91,7.49-19.37,16.73c-1.46,9.23,4.84,16.72,14.07,16.72
		c9.24,0,17.92-7.49,19.37-16.72C638.87,1090.87,632.57,1083.38,623.33,1083.38z" clip-rule="evenodd"/><path fill="#9488c0" fill-rule="evenodd" d="M326.8,1154.11c5.14-15.67,8.84-31.94,11.09-48.78c34.71,13.43,74.4,26.39,124.58,46.23l-6.77,25.81
		C379.86,1179.83,336.9,1172.09,326.8,1154.11z" clip-rule="evenodd"/><path fill="#fab688" fill-rule="evenodd" d="M462.47,1151.55c-50.18-19.83-89.87-32.79-124.58-46.23c-30.58-11.85-57.3-24.06-83.92-41.66
		c1.11-33.99,6.17-66.87,20.23-104.99c12.91,12.35,37.17,18.65,72.76,18.87c-10.3,19.47-18.69,36.26-25.18,50.37
		c53.53,44.38,105.13,78.76,147.09,99.23L462.47,1151.55z" clip-rule="evenodd"/><path fill="#fab688" fill-rule="evenodd" d="M583.53,961.93c3.86,13.51,7.44,25.98,10.74,37.45h-64.82c0.48-5.17,1.15-9.8,1.99-13.86
		C547.94,981.72,565.3,973.85,583.53,961.93z" clip-rule="evenodd"/><path fill="#071023" fill-rule="evenodd" d="M740.89,1590.11c-38.33-139.02-52.04-236.68-41.13-292.97c-21.79,3.1-43.67,4.08-65.64,2.93
		c3.34-15.04,6.7-30.12,10.12-45.39c-0.39-20.73-10.98-36.11-48.54-47.14h106.82c3.63,0.03,11.04,0.91,17.1-2.45
		c34.4,9.83,51.21,26.05,56.96,45.89c4.2,54.53-7.13,116.65,2.52,339.56C767.05,1591.78,754.32,1591.63,740.89,1590.11z" clip-rule="evenodd"/><path fill="#1b2452" fill-rule="evenodd" d="M700.84,1207.53h1.67c3.63,0.03,11.04,0.92,17.1-2.45c34.41,9.83,51.21,26.05,56.96,45.89
		c4.2,54.54-7.13,116.65,2.52,339.56c-7.18,0.75-14.61,1-22.29,0.76c-19.81-77.49-66.91-267.56-13.84-349.47
		C730.51,1228.61,716.47,1217.17,700.84,1207.53z" clip-rule="evenodd"/><path fill="#fab688" fill-rule="evenodd" d="M402.22,807.31c6.83-8.7,12.85-16.76,14.61-22.5c-1.38-3.92-2.82-8.88-4.32-14.87
		c-25.58-17.38-29.08-30.23-10.49-38.57c3.75,2.1,8.39,8.57,13.95,19.41c4.43-0.18,7.79-2.44,10.08-6.8
		c-5.28-18.29-8.72-33.14-10.31-44.57c12.6-18.73,42.08-21.41,81.12-16.35c1.81,10.4,3.29,21.4,4.45,33.01
		c6.9,6.36,6.01,29.93-0.34,57.1c3.17,15.44-6.36,23.88-28.61,25.29c-0.32,5.48,1.83,12.47,1.99,13.29l0,0l0.01,0.01
		c0.01,0.04,0.03,0.1,0.07,0.17C494.72,860.89,407.77,863.9,402.22,807.31z" clip-rule="evenodd"/><path fill="#071023" fill-rule="evenodd" d="M496.86,683.06c-39.04-5.06-68.52-2.38-81.12,16.35c1.59,11.42,5.03,26.28,10.31,44.57
		c-2.28,4.36-5.65,6.62-10.08,6.8c-5.55-10.84-10.2-17.31-13.95-19.41c-18.59,8.34-15.09,21.19,10.49,38.57
		c1.5,5.99,2.95,10.94,4.32,14.87c-23.01-5.16-42.27-25.74-44.97-34.65c-26.85-52.91,3.09-75.26,19.12-83.41
		c7.07-52.39,83.16-6.08,121.28-31.34C527.4,656.35,508.67,682.6,496.86,683.06z" clip-rule="evenodd"/><path fill="#ed7d57" fill-rule="evenodd" d="M443.44,797.78c10.77,0.88,20.41,1.09,28.92,0.68c-0.23,3.77,0.73,8.25,1.4,10.95
		C459.96,809.06,449.86,805.18,443.44,797.78z" clip-rule="evenodd"/><path fill="#712c14" fill-rule="evenodd" d="M561.35,1290.19H328.82c-8.31,0-15.11,6.8-15.11,15.11l0,0c0,8.31,6.8,15.11,15.11,15.11h232.53
		c8.31,0,15.11-6.8,15.11-15.11l0,0C576.46,1296.99,569.66,1290.19,561.35,1290.19z" clip-rule="evenodd"/><path fill="#a14527" fill-rule="evenodd" d="M342.69,1576.38c11.12-11.12,26.47-18.02,43.36-18.02h40h78.07c16.89,0,32.24,6.9,43.35,18.02
		c11.12,11.12,18.02,26.47,18.02,43.35v12.38h4.73v15.32h-4.73h-25.39h-4.72v-15.32h4.72v-12.38c0-9.88-4.05-18.88-10.58-25.41
		c-6.53-6.53-15.53-10.58-25.41-10.58h-78.07h-40c-9.89,0-18.88,4.05-25.41,10.58c-6.53,6.52-10.59,15.53-10.59,25.41v12.38h4.73
		v15.32h-4.73h-25.38h-4.73v-15.32h4.73v-12.38C324.67,1602.84,331.57,1587.49,342.69,1576.38z" clip-rule="evenodd"/><rect width="25.38" height="237.93" x="432.39" y="1320.42" fill="#a14527" fill-rule="evenodd" clip-rule="evenodd"/><path fill="#1b2452" fill-rule="evenodd" d="M363.75,1289.25c-44.96-16.14-51.08-60.93-31.3-128.61c16.25,13.3,57.33,18.87,123.24,16.72l-1.54,5.86
		c-0.07,0.26-0.11,0.52-0.13,0.79h-73.41c0.22,11.2-0.22,22.81,16.34,23.51H595.7c37.56,11.03,48.16,26.42,48.54,47.14
		c-23.78,106.27-44.94,203.72-73.77,338.38c-9.71,5.44-23.01,5.03-39.88-1.26c-13.52-130.59-9.81-225.55,11.13-284.9
		C486.11,1307.11,426.79,1299.54,363.75,1289.25z" clip-rule="evenodd"/><path fill="#071023" fill-rule="evenodd" d="M363.75,1289.25c-44.96-16.14-51.08-60.93-31.3-128.61c3.46,2.82,8.04,5.31,13.74,7.43
		c-16.39,69.55,1.43,107.65,54.27,111.31c61.66,9.14,112.77,13.54,153.33,13.19c-17.88,115.94-20.95,217.03-9.2,303.26
		c-4.35-0.83-9.02-2.17-14-4.03c-13.52-130.58-9.81-225.55,11.13-284.9C486.11,1307.11,426.79,1299.54,363.75,1289.25z" clip-rule="evenodd"/><path fill="#fab688" fill-rule="evenodd" d="M775.07,1590.89c1.12,4.18,2.93,8.13,5.45,11.82c-12.03,1.13-7.39,16.63-39.89,2.41
		c1.39-4.1,2.16-9.02,2.33-14.78C754.15,1591.49,764.85,1591.67,775.07,1590.89z" clip-rule="evenodd"/><path fill="#071023" fill-rule="evenodd" d="M570.37,1663.5c-22.14-9.13-25.46-24-37.64-29.69c-12.26-5.72-13.67-15.93-1.68-27
		c8.85,7.08,19.84,15.77,25.66,11.17c3.89-3.08,17.07-2.87,19.68,1.61c11.48,26.68,27.44,18.23,30.59,30.37
		C607.35,1666.12,584.31,1669.25,570.37,1663.5z" clip-rule="evenodd"/><path fill="#fab688" fill-rule="evenodd" d="M566.6,1594.85c-0.19,7.09,0.78,14.22,2.91,21.36c-4.74-0.74-10.45-0.08-12.79,1.77
		c-5.39,4.27-15.22-2.88-23.68-9.59c1.37-3.82,2.3-8.76,2.78-14.79C548.18,1597.46,558.44,1597.89,566.6,1594.85z" clip-rule="evenodd"/><path fill="#6251a1" fill-rule="evenodd" d="M346.96,977.55c5.72-10.35,11.78-24.28,18.17-41.79c-3.43,20.38-3.26,35.06-8.8,51.81
		c4.48,23.71,6.33,47.88,5.87,72.26c-7.59-5.69-15.26-11.61-22.98-17.75c-1.27-16.91-2.84-30.38-4.72-40.44
		C338.29,994.12,342.44,986.1,346.96,977.55L346.96,977.55z M544.77,981.64c-4.5,1.58-8.94,2.87-13.33,3.88
		c1.66-25.94,2.75-47.37,3.27-64.31C539.71,946.22,543.06,966.36,544.77,981.64L544.77,981.64z M326.8,1154.11
		c5.14-15.67,8.84-31.94,11.09-48.78c6.43,2.49,13.03,4.97,19.83,7.46c-2.73,18.45-6.63,36.9-11.58,55.27
		C336.43,1164.42,329.99,1159.78,326.8,1154.11z" clip-rule="evenodd"/></svg>